<?xml version="1.0" encoding="UTF-8" standalone="no"?>
<svg
   xmlns:dc="http://purl.org/dc/elements/1.1/"
   xmlns:cc="http://creativecommons.org/ns#"
   xmlns:rdf="http://www.w3.org/1999/02/22-rdf-syntax-ns#"
   xmlns:svg="http://www.w3.org/2000/svg"
   xmlns="http://www.w3.org/2000/svg"
   xmlns:xlink="http://www.w3.org/1999/xlink"
   xmlns:sodipodi="http://sodipodi.sourceforge.net/DTD/sodipodi-0.dtd"
   xmlns:inkscape="http://www.inkscape.org/namespaces/inkscape"
   viewBox="0 0 323.77622 265.64807"
   version="1.1"
   id="svg103"
   sodipodi:docname="dragon-152857.svg"
   width="323.77621"
   height="265.64807"
   inkscape:version="0.92.3 (2405546, 2018-03-11)">
  <metadata
     id="metadata107">
    <rdf:RDF>
      <cc:Work
         rdf:about="">
        <dc:format>image/svg+xml</dc:format>
        <dc:type
           rdf:resource="http://purl.org/dc/dcmitype/StillImage" />
        <dc:title></dc:title>
      </cc:Work>
    </rdf:RDF>
  </metadata>
  <sodipodi:namedview
     pagecolor="#ffffff"
     bordercolor="#666666"
     borderopacity="1"
     objecttolerance="10"
     gridtolerance="10"
     guidetolerance="10"
     inkscape:pageopacity="0"
     inkscape:pageshadow="2"
     inkscape:window-width="1920"
     inkscape:window-height="1013"
     id="namedview105"
     showgrid="false"
     fit-margin-top="0"
     fit-margin-left="0"
     fit-margin-right="0"
     fit-margin-bottom="0"
     inkscape:zoom="1.8838583"
     inkscape:cx="232.187"
     inkscape:cy="165.07387"
     inkscape:window-x="-9"
     inkscape:window-y="-9"
     inkscape:window-maximized="1"
     inkscape:current-layer="g1070" />
  <defs
     id="defs7">
    <radialGradient
       id="a"
       cx="376.57001"
       cy="-20.573"
       r="21.714001"
       gradientTransform="matrix(0.95357,-0.21861,0.19978,0.95,-172.59,473.11)"
       gradientUnits="userSpaceOnUse">
      <stop
         stop-color="#fff"
         offset="0"
         id="stop2" />
      <stop
         stop-color="#fa5486"
         offset="1"
         id="stop4" />
    </radialGradient>
    <radialGradient
       inkscape:collect="always"
       xlink:href="#a"
       id="radialGradient1072"
       gradientUnits="userSpaceOnUse"
       gradientTransform="matrix(0.95357,-0.21861,0.19978,0.95,-172.59,473.11)"
       cx="376.57001"
       cy="-20.573"
       r="21.714001" />
    <radialGradient
       inkscape:collect="always"
       xlink:href="#a"
       id="radialGradient1074"
       gradientUnits="userSpaceOnUse"
       gradientTransform="matrix(0.95357,-0.21861,0.19978,0.95,-172.59,473.11)"
       cx="376.57001"
       cy="-20.573"
       r="21.714001" />
    <filter
       inkscape:label="Fluorescence"
       inkscape:menu="Color"
       inkscape:menu-tooltip="Oversaturate colors which can be fluorescent in real world"
       style="color-interpolation-filters:sRGB;"
       id="filter1278">
      <feColorMatrix
         type="hueRotate"
         values="0"
         id="feColorMatrix1272" />
      <feColorMatrix
         type="saturate"
         values="1"
         id="feColorMatrix1274" />
      <feColorMatrix
         type="matrix"
         values="2 -1 0 0 0 0 2 -1 0 0 -1 0 2 0 0 0 0 0 1 0 "
         id="feColorMatrix1276" />
    </filter>
  </defs>
  <g
     inkscape:groupmode="layer"
     id="layer1"
     inkscape:label="dragon "
     style="display:none"
     transform="translate(8.3939609,-49.708257)">
    <g
       transform="translate(0,-261.42)"
       id="g101">
      <path
         d="m 134.91,398.62 c -5.0188,1.6548 -10.039,3.1905 -15.578,2.9618 -11.634,-0.48039 -21.335,-9.9694 -32.739,-10.44 -12.991,-0.53643 -18.409,3.6499 -29.808,7.8734 -5.9075,2.1887 -13.406,-0.50671 -19.336,-0.12341 -8.5341,0.55164 -10.984,12.763 -1.5129,16.734 4.5419,1.9043 11.451,5.0187 23.142,2.8877 6.9324,-1.2636 15.848,-8.6323 22.906,-9.0828 10.33,-0.65932 24.099,8.0143 35.032,8.4657 6.9767,0.28809 13.283,-1.8702 19.644,-3.7516 -0.0545,-0.90588 -0.13878,-1.805 -0.16548,-2.715 -0.0536,-1.8288 -0.0867,-3.6409 -0.16547,-5.3559 -0.0788,-1.715 -0.20936,-3.3119 -0.49641,-4.7388 -0.14352,-0.71348 -0.31372,-1.3904 -0.54368,-1.9992 -0.1002,-0.26512 -0.25859,-0.47345 -0.37822,-0.71576 z"
         id="path9"
         inkscape:connector-curvature="0"
         style="fill:#ff0000" />
      <path
         d="m 134.91,398.62 c 0.11963,0.24231 0.27808,0.45064 0.37822,0.71576 0.22996,0.60883 0.40016,1.2857 0.54368,1.9992 0.28705,1.427 0.41766,3.0239 0.49641,4.7388 0.0788,1.7149 0.11177,3.5271 0.16547,5.3559 0.0267,0.90999 0.11107,1.8091 0.16548,2.715 4.869,-1.4403 9.7616,-2.7352 15.034,-2.5175 4.3824,0.18096 12.138,0.3432 15.176,3.7763 2.0189,2.2815 6.0681,3.0314 5.5787,3.0111 -0.19087,-0.008 0.39109,-1.3169 0.42549,-1.3822 0.48516,-0.92029 0.48239,-3.1274 0.52005,-4.1218 0.10717,-2.8295 0.57872,-6.8023 1.702,-9.4283 -9,-4.2189 -19.584,-10.123 -30.376,-7.7747 -3.3643,0.73203 -6.5838,1.8487 -9.81,2.9124 z"
         id="path11"
         inkscape:connector-curvature="0"
         style="fill:#d40000" />
      <path
         d="m 204.51,311.13 c -29.521,-0.17492 -60.014,12.797 -50.846,47.808 -0.97626,0.24097 -1.745,1.064 -1.9384,2.0979 -16.785,-2.8245 -54.906,-8.5435 -59.051,10.556 -0.58154,2.6795 -1.2204,17.153 1.3988,18.794 8.9878,0.32504 22.962,-1.3765 36.75,-1.4064 13.788,-0.0299 26.065,1.0197 33.928,4.5114 8.827,3.9199 9.9154,27.687 -1.4656,29.668 -28.796,7.4733 -61.893,-0.20334 -61.893,-0.20334 0,0 -5.0055,5.3313 -3.8222,10.273 8.0529,33.633 76.392,0.43336 69.521,36.306 -4.621,24.124 -62.274,9.4242 -74.91,35.813 -3.9785,8.308 -0.63824,25.602 -0.63824,34.455 0,7.9597 0.4741,22.363 6.3588,28.507 6.1525,6.4239 12.531,7.281 20.944,7.281 37.871,0 8.9636,-46.232 32.999,-62.962 2.4274,-1.6896 9.5371,-3.6472 12.694,-1.9992 19.858,10.367 0.90775,56.612 26.664,64.295 49.456,14.754 1.3129,-63.197 29.217,-72.909 20.907,-7.2763 13.559,45.294 30.47,49.708 28.494,7.4378 8.6273,-49.607 13.947,-66.27 8.7077,-27.276 25.709,31.649 29.855,33.814 17.196,8.9773 23.341,-15.749 19.667,-29.173 -12.432,-45.43 -59.025,-17.858 -59.025,-73.575 0,-11.61 6.7134,-21.918 8.2498,-33.147 3.262,-23.842 -2.7989,-56.302 -26.664,-66.27 -8.8982,-3.7163 -20.578,-5.9028 -32.408,-5.9729 z"
         id="path13"
         inkscape:connector-curvature="0"
         style="fill:#b3b3b3" />
      <path
         d="m 246.56,390.49 c -18.547,6.4552 -13.369,-13.415 -20.354,-29.294 -7.7903,-17.709 -23.119,-4.2621 -25.855,-25.847 -2.736,-21.5849 39.999,-20.513 51.19,3.1071 11.191,23.6201 8.9964,46.093 -4.9801,52.034 z"
         id="path15"
         inkscape:connector-curvature="0"
         style="fill:#e6e6e6" />
      <path
         d="m 308.78,484.56 c 3.6978,8.7993 2.551,18.386 -0.90031,19.967 -3.45131,1.581 -4.4233,-6.8382 -8.1211,-15.638 -3.6978,-8.7998 -16.209,-21.069 -12.758,-22.65 3.451,-1.581 18.082,9.5212 21.779,18.32 z"
         id="path17"
         inkscape:connector-curvature="0"
         style="fill:#e6e6e6;fill-rule:evenodd" />
      <path
         d="m 262.74,516.95 c 1.7898,11.218 -1.0492,22.609 -5.3891,23.385 -4.3399,0.776 -3.1884,-9.9143 -4.9782,-21.132 -1.7898,-11.2177 -5.5756,-27.093 -1.2358,-27.869 4.3398,-0.776 9.8133,14.399 11.603,25.617 z"
         id="path19"
         inkscape:connector-curvature="0"
         style="fill:#e6e6e6;fill-rule:evenodd" />
      <path
         d="m 196.13,369.38 c 0,9.4718 -7.354,17.15 -16.425,17.15 -9.071,0 -16.425,-7.6784 -16.425,-17.15 0,-9.4716 7.3539,-17.15 16.425,-17.15 9.0711,0 16.425,7.6784 16.425,17.15 z"
         id="path21"
         inkscape:connector-curvature="0"
         style="fill:url(#radialGradient1072);fill-rule:evenodd" />
      <path
         d="m 183.68,348.74 c -3.2139,0 -6.1013,-0.0798 -8.6044,1.629 0.65137,-0.0659 2.5469,-0.3949 3.2148,-0.3949 5.5968,0 11.418,2.6623 15.083,6.4894 6.248,8.9263 5.2471,11.869 3.7804,17.748 1.546,-2.5638 2.4584,-5.5825 2.4584,-8.836 0,-9.1889 -7.1317,-16.635 -15.932,-16.635 z"
         id="path23"
         inkscape:connector-curvature="0"
         style="fill:#f2f2f2" />
      <path
         d="m 175.41,390.7 c 3.2139,0 6.1013,0.0798 8.6044,-1.629 -0.65138,0.0659 -2.5469,0.39491 -3.2148,0.39491 -5.5968,0 -11.418,-2.6623 -15.083,-6.4894 -6.248,-8.9263 -5.2471,-11.869 -3.7804,-17.748 -1.546,2.5638 -2.4584,5.5825 -2.4584,8.836 0,9.1889 7.1317,16.635 15.932,16.635 z"
         id="path25"
         inkscape:connector-curvature="0"
         style="fill:#999999" />
      <path
         d="m 175.87,370.4 c 0,5.8526 0.39232,10.597 -0.85575,10.597 -1.24807,0 -3.6639,-4.7445 -3.6639,-10.597 0,-5.8525 2.4158,-10.597 3.6639,-10.597 1.2481,0 0.85575,4.7444 0.85575,10.597 z"
         id="path27"
         inkscape:connector-curvature="0"
         style="fill-rule:evenodd" />
      <path
         d="m 176.65,368.2 c -2.9785,-0.62305 -4.7288,-1.6624 -2.175,-4.027 2.6055,-2.4125 7.5215,-6.476 9.9588,-4.1701 2.5951,2.4552 2.7334,5.2554 2.3078,6.8104 -0.70401,2.5727 -6.9997,1.94 -10.092,1.3867 z"
         id="path29"
         inkscape:connector-curvature="0"
         style="fill:#ebffff;fill-opacity:0.66129001" />
      <path
         d="m 208.71,539.12 c 3.6619,24.977 -0.24692,30.164 -7.7961,31.099 -2.154,-11.964 -9.3432,-63.399 -3.807,-63.79 4.3399,-0.93598 9.6239,19.191 11.603,32.691 z"
         id="path31"
         inkscape:connector-curvature="0"
         style="fill:#e6e6e6;fill-rule:evenodd" />
      <path
         d="m 135.04,539.77 c -0.43337,13.711 1.7896,26.704 -11.897,27.235 -6.1392,0.23825 -9.612,-11.105 -8.0047,-24.72 2.6677,-22.597 23.721,-38.817 28.358,-34.61 4.4204,4.0103 -7.68,7.5227 -8.4566,32.094 z"
         id="path33"
         inkscape:connector-curvature="0"
         style="fill:#e6e6e6;fill-rule:evenodd" />
      <path
         d="m 84.185,400.04 c -9.0249,0.027 -14.377,3.9863 -19.856,7.0589 -5.479,3.0726 -10.827,3.1936 -20.707,0.6113 -1.4868,-0.29582 -3.0972,0.84753 -3.3804,2.3999 -0.2832,1.55237 0.81198,3.2338 2.2988,3.5294 15.137,2.3333 17.505,-0.55392 23.207,-3.7516 5.702,-3.19768 10.244,-6.6641 18.438,-6.6887 2.921,-0.009 7.2692,2.0894 12.41,4.5414 5.1408,2.452 11.156,5.1833 17.942,5.9482 0.79219,0.0842 1.5863,-0.592 1.6667,-1.4192 0.0804,-0.8272 -0.56723,-1.6562 -1.3594,-1.7401 -6.2106,-0.70016 -11.902,-3.2227 -16.996,-5.652 -5.094,-2.4293 -9.5043,-4.85 -13.663,-4.8376 z"
         id="path35"
         inkscape:connector-curvature="0"
         style="opacity:0.88788997;fill:#ffffff" />
      <path
         d="m 110.4,574.76 c 0,0 -3.852,-1.114 -5.4747,-1.8897 -8.3495,-3.9912 -11.468,-9.7933 -12.564,-23.376 -0.88636,-10.986 -1.6443,-25.928 -1.6392,-32.314 0.01,-11.851 3.4222,-17.584 13.583,-22.819 5.7947,-2.9856 11.986,-4.6423 27.34,-7.3166 15.965,-2.7805 19.158,-3.5174 24.407,-5.6306 5.6148,-2.2608 9.6265,-6.1479 10.848,-10.511 2.5626,-9.152 -0.62557,-15.957 -8.635,-18.431 -4.6306,-1.4303 -10.161,-2.1282 -20.201,-2.5494 -21.008,-0.88115 -28.761,-2.5267 -34.902,-7.4087 -1.3601,-1.8514 -6.3813,-8.0879 -2.406,-5.7209 6.6354,2.6252 16.269,3.9896 35.436,5.0187 19.976,1.0726 28.561,1.7257 33.601,2.5561 8.6533,1.4257 15.413,4.3866 16.872,7.3906 2.4092,4.9598 3.7366,18.735 2.5634,26.603 -0.83647,5.6099 -3.5365,8.0426 -11.65,10.497 -3.9908,1.207 -4.9256,-0.17477 -16.782,1.0109 -23.236,2.3236 -51.775,-1.1701 -59.456,24.023 -1.1724,3.8982 -1.2506,5.0215 -1.2221,17.568 0.0279,12.279 0.13389,13.778 1.2642,17.871 2.268,8.2131 5.0762,13.46 9.612,17.96 2.2346,2.217 5.5769,4.4026 9.8177,5.1127 2.78,0.76505 4.1423,1.1006 5.8356,1.9156 -0.71909,0.75081 -16.247,0.4404 -16.247,0.4404 z"
         id="path37"
         inkscape:connector-curvature="0"
         style="opacity:0.88788997;fill:#999999;fill-rule:evenodd;stroke:#999999;stroke-width:0.77293998" />
      <path
         d="m 153.38,357.65 c -0.3024,-0.4895 -0.75729,-3.8516 -1.0643,-6.6406 -0.32353,-2.9391 -0.1405,-7.8421 0.39074,-10.468 0.86442,-4.2723 2.4809,-8.0756 4.8673,-11.452 1.4558,-2.0599 4.9162,-5.577 6.9934,-7.1083 1.6114,-1.1879 5.5423,-3.6136 5.6588,-3.492 -11.599,10.444 -8.8188,27.289 -5.0147,37.454 -3.3683,5.6587 -8.4468,3.9661 -11.831,1.7071 z"
         id="path39"
         inkscape:connector-curvature="0"
         style="opacity:0.88788997;fill:#999999;fill-rule:evenodd" />
      <path
         transform="matrix(0.79766,-0.20428,0.19565,0.83286,23.167,38.286)"
         d="m 75.66,484.56 a 4.9498,4.9498 0 1 1 -9.8995,0 4.9498,4.9498 0 1 1 9.8995,0 z"
         id="path41"
         inkscape:connector-curvature="0"
         style="opacity:0.46188001;fill:#808000;fill-rule:evenodd" />
      <path
         transform="matrix(0.79608,0.02391,-0.0229,0.8312,149.88,10.519)"
         d="m 75.66,484.56 a 4.9498,4.9498 0 1 1 -9.8995,0 4.9498,4.9498 0 1 1 9.8995,0 z"
         id="path43"
         inkscape:connector-curvature="0"
         style="opacity:0.46188001;fill:#808000;fill-rule:evenodd" />
      <path
         transform="matrix(0.70822,-0.22376,0.2143,0.73947,53.593,80.403)"
         d="m 75.66,484.56 a 4.9498,4.9498 0 1 1 -9.8995,0 4.9498,4.9498 0 1 1 9.8995,0 z"
         id="path45"
         inkscape:connector-curvature="0"
         style="opacity:0.46188001;fill:#808000;fill-rule:evenodd" />
      <path
         transform="matrix(0.68464,0.34141,-0.32698,0.71484,304.54,57.955)"
         d="m 75.66,484.56 a 4.9498,4.9498 0 1 1 -9.8995,0 4.9498,4.9498 0 1 1 9.8995,0 z"
         id="path47"
         inkscape:connector-curvature="0"
         style="opacity:0.46188001;fill:#808000;fill-rule:evenodd" />
      <path
         transform="matrix(0.66028,0.17867,-0.17112,0.68941,249.69,88.582)"
         d="m 75.66,484.56 a 4.9498,4.9498 0 1 1 -9.8995,0 4.9498,4.9498 0 1 1 9.8995,0 z"
         id="path49"
         inkscape:connector-curvature="0"
         style="opacity:0.46188001;fill:#808000;fill-rule:evenodd" />
      <path
         transform="matrix(0.62881,0.35998,-0.34477,0.65656,338.3,79.132)"
         d="m 75.66,484.56 a 4.9498,4.9498 0 1 1 -9.8995,0 4.9498,4.9498 0 1 1 9.8995,0 z"
         id="path51"
         inkscape:connector-curvature="0"
         style="opacity:0.46188001;fill:#808000;fill-rule:evenodd" />
      <path
         transform="matrix(0.77267,-0.34863,0.3339,0.80676,10.872,62.514)"
         d="m 75.66,484.56 a 4.9498,4.9498 0 1 1 -9.8995,0 4.9498,4.9498 0 1 1 9.8995,0 z"
         id="path53"
         inkscape:connector-curvature="0"
         style="opacity:0.46188001;fill:#808000;fill-rule:evenodd" />
      <path
         transform="matrix(0.69065,-0.1469,0.14069,0.72112,112.9,64.778)"
         d="m 75.66,484.56 a 4.9498,4.9498 0 1 1 -9.8995,0 4.9498,4.9498 0 1 1 9.8995,0 z"
         id="path55"
         inkscape:connector-curvature="0"
         style="opacity:0.46188001;fill:#808000;fill-rule:evenodd" />
      <path
         transform="matrix(0.81107,-0.00331,0.00317,0.84686,155.57,-1.7867)"
         d="m 75.66,484.56 a 4.9498,4.9498 0 1 1 -9.8995,0 4.9498,4.9498 0 1 1 9.8995,0 z"
         id="path57"
         inkscape:connector-curvature="0"
         style="opacity:0.46188001;fill:#808000;fill-rule:evenodd" />
      <path
         transform="matrix(0.85323,0.05979,-0.05726,0.89088,171.65,-31.162)"
         d="m 75.66,484.56 a 4.9498,4.9498 0 1 1 -9.8995,0 4.9498,4.9498 0 1 1 9.8995,0 z"
         id="path59"
         inkscape:connector-curvature="0"
         style="opacity:0.46188001;fill:#808000;fill-rule:evenodd" />
      <path
         transform="matrix(0.73639,-0.32523,0.31149,0.76888,-17.865,48.462)"
         d="m 75.66,484.56 a 4.9498,4.9498 0 1 1 -9.8995,0 4.9498,4.9498 0 1 1 9.8995,0 z"
         id="path61"
         inkscape:connector-curvature="0"
         style="opacity:0.46188001;fill:#808000;fill-rule:evenodd" />
      <path
         transform="matrix(0.74705,-0.37564,0.35977,0.78001,-18.406,28.512)"
         d="m 75.66,484.56 a 4.9498,4.9498 0 1 1 -9.8995,0 4.9498,4.9498 0 1 1 9.8995,0 z"
         id="path63"
         inkscape:connector-curvature="0"
         style="opacity:0.46188001;fill:#808000;fill-rule:evenodd" />
      <path
         transform="matrix(0.56109,0.42557,-0.40759,0.58584,330.52,21.451)"
         d="m 75.66,484.56 a 4.9498,4.9498 0 1 1 -9.8995,0 4.9498,4.9498 0 1 1 9.8995,0 z"
         id="path65"
         inkscape:connector-curvature="0"
         style="opacity:0.46188001;fill:#808000;fill-rule:evenodd" />
      <path
         transform="matrix(0.79355,-0.19726,0.18892,0.82857,15.3,-38.042)"
         d="m 75.66,484.56 a 4.9498,4.9498 0 1 1 -9.8995,0 4.9498,4.9498 0 1 1 9.8995,0 z"
         id="path67"
         inkscape:connector-curvature="0"
         style="opacity:0.46188001;fill:#808000;fill-rule:evenodd" />
      <path
         transform="matrix(0.79883,0.24318,-0.2329,0.83407,218.03,-84.415)"
         d="m 75.66,484.56 a 4.9498,4.9498 0 1 1 -9.8995,0 4.9498,4.9498 0 1 1 9.8995,0 z"
         id="path69"
         inkscape:connector-curvature="0"
         style="opacity:0.46188001;fill:#808000;fill-rule:evenodd" />
      <path
         transform="matrix(0.76542,-0.38198,0.36584,0.79919,-84.073,12.588)"
         d="m 75.66,484.56 a 4.9498,4.9498 0 1 1 -9.8995,0 4.9498,4.9498 0 1 1 9.8995,0 z"
         id="path71"
         inkscape:connector-curvature="0"
         style="opacity:0.46188001;fill:#808000;fill-rule:evenodd" />
      <path
         transform="matrix(0.84975,-0.07234,0.06928,0.88724,36.724,-50.191)"
         d="m 75.66,484.56 a 4.9498,4.9498 0 1 1 -9.8995,0 4.9498,4.9498 0 1 1 9.8995,0 z"
         id="path73"
         inkscape:connector-curvature="0"
         style="opacity:0.46188001;fill:#808000;fill-rule:evenodd" />
      <path
         transform="matrix(0.82899,-0.14062,0.13468,0.86556,-12.801,-40.819)"
         d="m 75.66,484.56 a 4.9498,4.9498 0 1 1 -9.8995,0 4.9498,4.9498 0 1 1 9.8995,0 z"
         id="path75"
         inkscape:connector-curvature="0"
         style="opacity:0.46188001;fill:#808000;fill-rule:evenodd" />
      <path
         transform="matrix(0.72609,-0.05329,0.05104,0.75813,53.645,-0.15854)"
         d="m 75.66,484.56 a 4.9498,4.9498 0 1 1 -9.8995,0 4.9498,4.9498 0 1 1 9.8995,0 z"
         id="path77"
         inkscape:connector-curvature="0"
         style="opacity:0.46188001;fill:#808000;fill-rule:evenodd" />
      <path
         transform="matrix(0.75149,-0.06538,0.06262,0.78465,26.927,2.5521)"
         d="m 75.66,484.56 a 4.9498,4.9498 0 1 1 -9.8995,0 4.9498,4.9498 0 1 1 9.8995,0 z"
         id="path79"
         inkscape:connector-curvature="0"
         style="opacity:0.46188001;fill:#808000;fill-rule:evenodd" />
      <path
         transform="matrix(0.84817,0.10708,-0.10256,0.8856,170.3,11.51)"
         d="m 75.66,484.56 a 4.9498,4.9498 0 1 1 -9.8995,0 4.9498,4.9498 0 1 1 9.8995,0 z"
         id="path81"
         inkscape:connector-curvature="0"
         style="opacity:0.46188001;fill:#808000;fill-rule:evenodd" />
      <path
         transform="matrix(0.74205,-0.29931,0.28666,0.77479,33.042,93.057)"
         d="m 75.66,484.56 a 4.9498,4.9498 0 1 1 -9.8995,0 4.9498,4.9498 0 1 1 9.8995,0 z"
         id="path83"
         inkscape:connector-curvature="0"
         style="opacity:0.46188001;fill:#808000;fill-rule:evenodd" />
      <path
         transform="matrix(0.71767,-0.04234,0.04055,0.74933,118.53,102.41)"
         d="m 75.66,484.56 a 4.9498,4.9498 0 1 1 -9.8995,0 4.9498,4.9498 0 1 1 9.8995,0 z"
         id="path85"
         inkscape:connector-curvature="0"
         style="opacity:0.46188001;fill:#808000;fill-rule:evenodd" />
      <path
         transform="matrix(0.69248,-0.23431,0.22441,0.72303,47.044,136.1)"
         d="m 75.66,484.56 a 4.9498,4.9498 0 1 1 -9.8995,0 4.9498,4.9498 0 1 1 9.8995,0 z"
         id="path87"
         inkscape:connector-curvature="0"
         style="opacity:0.46188001;fill:#808000;fill-rule:evenodd" />
      <path
         transform="matrix(0.78155,-0.22834,0.21869,0.81603,80.307,58.88)"
         d="m 75.66,484.56 a 4.9498,4.9498 0 1 1 -9.8995,0 4.9498,4.9498 0 1 1 9.8995,0 z"
         id="path89"
         inkscape:connector-curvature="0"
         style="opacity:0.46188001;fill:#808000;fill-rule:evenodd" />
      <path
         transform="matrix(0.65686,0.14279,-0.13675,0.68584,218.17,101.91)"
         d="m 75.66,484.56 a 4.9498,4.9498 0 1 1 -9.8995,0 4.9498,4.9498 0 1 1 9.8995,0 z"
         id="path91"
         inkscape:connector-curvature="0"
         style="opacity:0.46188001;fill:#808000;fill-rule:evenodd" />
      <path
         transform="matrix(0.76594,-0.29454,0.28209,0.79974,-63.57,123.35)"
         d="m 75.66,484.56 a 4.9498,4.9498 0 1 1 -9.8995,0 4.9498,4.9498 0 1 1 9.8995,0 z"
         id="path93"
         inkscape:connector-curvature="0"
         style="opacity:0.46188001;fill:#808000;fill-rule:evenodd" />
      <path
         transform="matrix(0.76949,-0.29241,0.28006,0.80344,-84.207,151.96)"
         d="m 75.66,484.56 a 4.9498,4.9498 0 1 1 -9.8995,0 4.9498,4.9498 0 1 1 9.8995,0 z"
         id="path95"
         inkscape:connector-curvature="0"
         style="opacity:0.46188001;fill:#808000;fill-rule:evenodd" />
      <path
         transform="matrix(0.73139,-0.3959,0.37917,0.76365,-124.65,185.73)"
         d="m 75.66,484.56 a 4.9498,4.9498 0 1 1 -9.8995,0 4.9498,4.9498 0 1 1 9.8995,0 z"
         id="path97"
         inkscape:connector-curvature="0"
         style="opacity:0.46188001;fill:#808000;fill-rule:evenodd" />
      <path
         d="m 99.603,438.55 c 5.1444,11.134 26.368,12.814 38.383,13.332 9.9848,0.41878 15.34,1.1096 19.738,2.4681 3.6179,1.1175 5.9143,3.0878 7.1388,5.7014 1.2245,2.6136 1.423,6.0544 0.23639,10.292 -0.99373,3.549 -4.4974,7.1298 -9.7154,9.2309 -5.1456,2.0719 -8.089,2.7504 -24.04,5.5286 -15.398,2.6819 -21.845,4.3742 -27.87,7.4785 -5.2506,2.7052 -8.9984,5.6659 -11.37,9.6505 -2.3716,3.9846 -3.2572,8.8093 -3.2621,14.932 -0.005,6.5522 0.74023,21.44 1.6311,32.481 0.55866,6.924 1.6372,12.057 3.8058,16.092 4.6221,7.3724 10.681,9.5986 18.027,9.5608 -20.108,-9.7042 -25.008,-54.578 -16.987,-70.968 1.8771,-3.1535 4.9237,-5.6646 9.8336,-8.1942 5.5644,-2.8669 11.495,-4.4909 26.806,-7.1576 15.978,-2.7828 13.808,-1.5172 21.965,-3.911 9.1641,-2.6895 16.06,-7.3557 18.27,-13.108 2.0976,-5.4601 1.9185,-10.483 -0.72068,-14.589 -2.63918,-4.106 -7.6834,-7.1037 -14.378,-8.6109 -18.653,-2.988 -25.683,0.32107 -41.683,-2.9732 -6.0411,-0.92544 -12.615,-5.1786 -15.808,-7.2357 z"
         id="path99"
         inkscape:connector-curvature="0"
         style="opacity:0.88788997" />
    </g>
    <path
       style="opacity:1;fill:#ff5555;fill-opacity:1;stroke:none;stroke-width:12.39212227;stroke-miterlimit:4;stroke-dasharray:none;stroke-opacity:1;paint-order:markers fill stroke"
       d="m 30.019531,129.12109 a 14.450987,15.858551 0 0 0 -0.710937,0.0273 h -0.910156 v 0.0918 a 14.450987,15.858551 0 0 0 -12.822266,15.74219 v 0.0215 a 14.450987,15.858551 0 0 0 14.470703,15.83398 14.450987,15.858551 0 0 0 2.544922,-0.25781 H 156.07617 a 16.560139,13.17008 69.662969 0 0 7.64063,1.10742 16.560139,13.17008 69.662969 0 0 8.75781,-18.61133 16.560139,13.17008 69.662969 0 0 -15.61523,-13.51953 v -0.4082 H 30.525391 a 14.450987,15.858551 0 0 0 -0.50586,-0.0273 z"
       id="path962"
       inkscape:connector-curvature="0" />
  </g>
  <g
     style="display:inline"
     inkscape:label="dragon 1"
     id="g1070"
     inkscape:groupmode="layer"
     transform="translate(8.3939609,-49.708257)">
    <g
       id="g1066"
       transform="translate(0,-261.42)"
       style="filter:url(#filter1278)">
      <path
         style="fill:#ff0000"
         inkscape:connector-curvature="0"
         id="path974"
         d="m 134.91,398.62 c -5.0188,1.6548 -10.039,3.1905 -15.578,2.9618 -11.634,-0.48039 -21.335,-9.9694 -32.739,-10.44 -12.991,-0.53643 -18.409,3.6499 -29.808,7.8734 -5.9075,2.1887 -13.406,-0.50671 -19.336,-0.12341 -8.5341,0.55164 -10.984,12.763 -1.5129,16.734 4.5419,1.9043 11.451,5.0187 23.142,2.8877 6.9324,-1.2636 15.848,-8.6323 22.906,-9.0828 10.33,-0.65932 24.099,8.0143 35.032,8.4657 6.9767,0.28809 13.283,-1.8702 19.644,-3.7516 -0.0545,-0.90588 -0.13878,-1.805 -0.16548,-2.715 -0.0536,-1.8288 -0.0867,-3.6409 -0.16547,-5.3559 -0.0788,-1.715 -0.20936,-3.3119 -0.49641,-4.7388 -0.14352,-0.71348 -0.31372,-1.3904 -0.54368,-1.9992 -0.1002,-0.26512 -0.25859,-0.47345 -0.37822,-0.71576 z" />
      <path
         style="fill:#d40000"
         inkscape:connector-curvature="0"
         id="path976"
         d="m 134.91,398.62 c 0.11963,0.24231 0.27808,0.45064 0.37822,0.71576 0.22996,0.60883 0.40016,1.2857 0.54368,1.9992 0.28705,1.427 0.41766,3.0239 0.49641,4.7388 0.0788,1.7149 0.11177,3.5271 0.16547,5.3559 0.0267,0.90999 0.11107,1.8091 0.16548,2.715 4.869,-1.4403 9.7616,-2.7352 15.034,-2.5175 4.3824,0.18096 12.138,0.3432 15.176,3.7763 2.0189,2.2815 6.0681,3.0314 5.5787,3.0111 -0.19087,-0.008 0.39109,-1.3169 0.42549,-1.3822 0.48516,-0.92029 0.48239,-3.1274 0.52005,-4.1218 0.10717,-2.8295 0.57872,-6.8023 1.702,-9.4283 -9,-4.2189 -19.584,-10.123 -30.376,-7.7747 -3.3643,0.73203 -6.5838,1.8487 -9.81,2.9124 z" />
      <path
         style="fill:#b3b3b3"
         inkscape:connector-curvature="0"
         id="path978"
         d="m 204.51,311.13 c -29.521,-0.17492 -60.014,12.797 -50.846,47.808 -0.97626,0.24097 -1.745,1.064 -1.9384,2.0979 -16.785,-2.8245 -54.906,-8.5435 -59.051,10.556 -0.58154,2.6795 -1.2204,17.153 1.3988,18.794 8.9878,0.32504 22.962,-1.3765 36.75,-1.4064 13.788,-0.0299 26.065,1.0197 33.928,4.5114 8.827,3.9199 9.9154,27.687 -1.4656,29.668 -28.796,7.4733 -61.893,-0.20334 -61.893,-0.20334 0,0 -5.0055,5.3313 -3.8222,10.273 8.0529,33.633 76.392,0.43336 69.521,36.306 -4.621,24.124 -62.274,9.4242 -74.91,35.813 -3.9785,8.308 -0.63824,25.602 -0.63824,34.455 0,7.9597 0.4741,22.363 6.3588,28.507 6.1525,6.4239 12.531,7.281 20.944,7.281 37.871,0 8.9636,-46.232 32.999,-62.962 2.4274,-1.6896 9.5371,-3.6472 12.694,-1.9992 19.858,10.367 0.90775,56.612 26.664,64.295 49.456,14.754 1.3129,-63.197 29.217,-72.909 20.907,-7.2763 13.559,45.294 30.47,49.708 28.494,7.4378 8.6273,-49.607 13.947,-66.27 8.7077,-27.276 25.709,31.649 29.855,33.814 17.196,8.9773 23.341,-15.749 19.667,-29.173 -12.432,-45.43 -59.025,-17.858 -59.025,-73.575 0,-11.61 6.7134,-21.918 8.2498,-33.147 3.262,-23.842 -2.7989,-56.302 -26.664,-66.27 -8.8982,-3.7163 -20.578,-5.9028 -32.408,-5.9729 z" />
      <path
         style="fill:#e6e6e6"
         inkscape:connector-curvature="0"
         id="path980"
         d="m 246.56,390.49 c -18.547,6.4552 -13.369,-13.415 -20.354,-29.294 -7.7903,-17.709 -23.119,-4.2621 -25.855,-25.847 -2.736,-21.5849 39.999,-20.513 51.19,3.1071 11.191,23.6201 8.9964,46.093 -4.9801,52.034 z" />
      <path
         style="fill:#e6e6e6;fill-rule:evenodd"
         inkscape:connector-curvature="0"
         id="path982"
         d="m 308.78,484.56 c 3.6978,8.7993 2.551,18.386 -0.90031,19.967 -3.45131,1.581 -4.4233,-6.8382 -8.1211,-15.638 -3.6978,-8.7998 -16.209,-21.069 -12.758,-22.65 3.451,-1.581 18.082,9.5212 21.779,18.32 z" />
      <path
         style="fill:#e6e6e6;fill-rule:evenodd"
         inkscape:connector-curvature="0"
         id="path984"
         d="m 262.74,516.95 c 1.7898,11.218 -1.0492,22.609 -5.3891,23.385 -4.3399,0.776 -3.1884,-9.9143 -4.9782,-21.132 -1.7898,-11.2177 -5.5756,-27.093 -1.2358,-27.869 4.3398,-0.776 9.8133,14.399 11.603,25.617 z" />
      <path
         style="fill:url(#radialGradient1074);fill-rule:evenodd"
         inkscape:connector-curvature="0"
         id="path986"
         d="m 196.13,369.38 c 0,9.4718 -7.354,17.15 -16.425,17.15 -9.071,0 -16.425,-7.6784 -16.425,-17.15 0,-9.4716 7.3539,-17.15 16.425,-17.15 9.0711,0 16.425,7.6784 16.425,17.15 z" />
      <path
         style="fill:#f2f2f2"
         inkscape:connector-curvature="0"
         id="path988"
         d="m 183.68,348.74 c -3.2139,0 -6.1013,-0.0798 -8.6044,1.629 0.65137,-0.0659 2.5469,-0.3949 3.2148,-0.3949 5.5968,0 11.418,2.6623 15.083,6.4894 6.248,8.9263 5.2471,11.869 3.7804,17.748 1.546,-2.5638 2.4584,-5.5825 2.4584,-8.836 0,-9.1889 -7.1317,-16.635 -15.932,-16.635 z" />
      <path
         style="fill:#999999"
         inkscape:connector-curvature="0"
         id="path990"
         d="m 175.41,390.7 c 3.2139,0 6.1013,0.0798 8.6044,-1.629 -0.65138,0.0659 -2.5469,0.39491 -3.2148,0.39491 -5.5968,0 -11.418,-2.6623 -15.083,-6.4894 -6.248,-8.9263 -5.2471,-11.869 -3.7804,-17.748 -1.546,2.5638 -2.4584,5.5825 -2.4584,8.836 0,9.1889 7.1317,16.635 15.932,16.635 z" />
      <path
         style="fill-rule:evenodd"
         inkscape:connector-curvature="0"
         id="path992"
         d="m 175.87,370.4 c 0,5.8526 0.39232,10.597 -0.85575,10.597 -1.24807,0 -3.6639,-4.7445 -3.6639,-10.597 0,-5.8525 2.4158,-10.597 3.6639,-10.597 1.2481,0 0.85575,4.7444 0.85575,10.597 z" />
      <path
         style="fill:#ebffff;fill-opacity:0.66129001"
         inkscape:connector-curvature="0"
         id="path994"
         d="m 176.65,368.2 c -2.9785,-0.62305 -4.7288,-1.6624 -2.175,-4.027 2.6055,-2.4125 7.5215,-6.476 9.9588,-4.1701 2.5951,2.4552 2.7334,5.2554 2.3078,6.8104 -0.70401,2.5727 -6.9997,1.94 -10.092,1.3867 z" />
      <path
         style="fill:#e6e6e6;fill-rule:evenodd"
         inkscape:connector-curvature="0"
         id="path996"
         d="m 208.71,539.12 c 3.6619,24.977 -0.24692,30.164 -7.7961,31.099 -2.154,-11.964 -9.3432,-63.399 -3.807,-63.79 4.3399,-0.93598 9.6239,19.191 11.603,32.691 z" />
      <path
         style="fill:#e6e6e6;fill-rule:evenodd"
         inkscape:connector-curvature="0"
         id="path998"
         d="m 135.04,539.77 c -0.43337,13.711 1.7896,26.704 -11.897,27.235 -6.1392,0.23825 -9.612,-11.105 -8.0047,-24.72 2.6677,-22.597 23.721,-38.817 28.358,-34.61 4.4204,4.0103 -7.68,7.5227 -8.4566,32.094 z" />
      <path
         style="opacity:0.88788997;fill:#ffffff"
         inkscape:connector-curvature="0"
         id="path1000"
         d="m 84.185,400.04 c -9.0249,0.027 -14.377,3.9863 -19.856,7.0589 -5.479,3.0726 -10.827,3.1936 -20.707,0.6113 -1.4868,-0.29582 -3.0972,0.84753 -3.3804,2.3999 -0.2832,1.55237 0.81198,3.2338 2.2988,3.5294 15.137,2.3333 17.505,-0.55392 23.207,-3.7516 5.702,-3.19768 10.244,-6.6641 18.438,-6.6887 2.921,-0.009 7.2692,2.0894 12.41,4.5414 5.1408,2.452 11.156,5.1833 17.942,5.9482 0.79219,0.0842 1.5863,-0.592 1.6667,-1.4192 0.0804,-0.8272 -0.56723,-1.6562 -1.3594,-1.7401 -6.2106,-0.70016 -11.902,-3.2227 -16.996,-5.652 -5.094,-2.4293 -9.5043,-4.85 -13.663,-4.8376 z" />
      <path
         style="opacity:0.88788997;fill:#999999;fill-rule:evenodd;stroke:#999999;stroke-width:0.77293998"
         inkscape:connector-curvature="0"
         id="path1002"
         d="m 110.4,574.76 c 0,0 -3.852,-1.114 -5.4747,-1.8897 -8.3495,-3.9912 -11.468,-9.7933 -12.564,-23.376 -0.88636,-10.986 -1.6443,-25.928 -1.6392,-32.314 0.01,-11.851 3.4222,-17.584 13.583,-22.819 5.7947,-2.9856 11.986,-4.6423 27.34,-7.3166 15.965,-2.7805 19.158,-3.5174 24.407,-5.6306 5.6148,-2.2608 9.6265,-6.1479 10.848,-10.511 2.5626,-9.152 -0.62557,-15.957 -8.635,-18.431 -4.6306,-1.4303 -10.161,-2.1282 -20.201,-2.5494 -21.008,-0.88115 -28.761,-2.5267 -34.902,-7.4087 -1.3601,-1.8514 -6.3813,-8.0879 -2.406,-5.7209 6.6354,2.6252 16.269,3.9896 35.436,5.0187 19.976,1.0726 28.561,1.7257 33.601,2.5561 8.6533,1.4257 15.413,4.3866 16.872,7.3906 2.4092,4.9598 3.7366,18.735 2.5634,26.603 -0.83647,5.6099 -3.5365,8.0426 -11.65,10.497 -3.9908,1.207 -4.9256,-0.17477 -16.782,1.0109 -23.236,2.3236 -51.775,-1.1701 -59.456,24.023 -1.1724,3.8982 -1.2506,5.0215 -1.2221,17.568 0.0279,12.279 0.13389,13.778 1.2642,17.871 2.268,8.2131 5.0762,13.46 9.612,17.96 2.2346,2.217 5.5769,4.4026 9.8177,5.1127 2.78,0.76505 4.1423,1.1006 5.8356,1.9156 -0.71909,0.75081 -16.247,0.4404 -16.247,0.4404 z" />
      <path
         style="opacity:0.88788997;fill:#999999;fill-rule:evenodd"
         inkscape:connector-curvature="0"
         id="path1004"
         d="m 153.38,357.65 c -0.3024,-0.4895 -0.75729,-3.8516 -1.0643,-6.6406 -0.32353,-2.9391 -0.1405,-7.8421 0.39074,-10.468 0.86442,-4.2723 2.4809,-8.0756 4.8673,-11.452 1.4558,-2.0599 4.9162,-5.577 6.9934,-7.1083 1.6114,-1.1879 5.5423,-3.6136 5.6588,-3.492 -11.599,10.444 -8.8188,27.289 -5.0147,37.454 -3.3683,5.6587 -8.4468,3.9661 -11.831,1.7071 z" />
      <path
         style="opacity:0.46188001;fill:#808000;fill-rule:evenodd"
         inkscape:connector-curvature="0"
         id="path1006"
         d="m 75.66,484.56 a 4.9498,4.9498 0 1 1 -9.8995,0 4.9498,4.9498 0 1 1 9.8995,0 z"
         transform="matrix(0.79766,-0.20428,0.19565,0.83286,23.167,38.286)" />
      <path
         style="opacity:0.46188001;fill:#808000;fill-rule:evenodd"
         inkscape:connector-curvature="0"
         id="path1008"
         d="m 75.66,484.56 a 4.9498,4.9498 0 1 1 -9.8995,0 4.9498,4.9498 0 1 1 9.8995,0 z"
         transform="matrix(0.79608,0.02391,-0.0229,0.8312,149.88,10.519)" />
      <path
         style="opacity:0.46188001;fill:#808000;fill-rule:evenodd"
         inkscape:connector-curvature="0"
         id="path1010"
         d="m 75.66,484.56 a 4.9498,4.9498 0 1 1 -9.8995,0 4.9498,4.9498 0 1 1 9.8995,0 z"
         transform="matrix(0.70822,-0.22376,0.2143,0.73947,53.593,80.403)" />
      <path
         style="opacity:0.46188001;fill:#808000;fill-rule:evenodd"
         inkscape:connector-curvature="0"
         id="path1012"
         d="m 75.66,484.56 a 4.9498,4.9498 0 1 1 -9.8995,0 4.9498,4.9498 0 1 1 9.8995,0 z"
         transform="matrix(0.68464,0.34141,-0.32698,0.71484,304.54,57.955)" />
      <path
         style="opacity:0.46188001;fill:#808000;fill-rule:evenodd"
         inkscape:connector-curvature="0"
         id="path1014"
         d="m 75.66,484.56 a 4.9498,4.9498 0 1 1 -9.8995,0 4.9498,4.9498 0 1 1 9.8995,0 z"
         transform="matrix(0.66028,0.17867,-0.17112,0.68941,249.69,88.582)" />
      <path
         style="opacity:0.46188001;fill:#808000;fill-rule:evenodd"
         inkscape:connector-curvature="0"
         id="path1016"
         d="m 75.66,484.56 a 4.9498,4.9498 0 1 1 -9.8995,0 4.9498,4.9498 0 1 1 9.8995,0 z"
         transform="matrix(0.62881,0.35998,-0.34477,0.65656,338.3,79.132)" />
      <path
         style="opacity:0.46188001;fill:#808000;fill-rule:evenodd"
         inkscape:connector-curvature="0"
         id="path1018"
         d="m 75.66,484.56 a 4.9498,4.9498 0 1 1 -9.8995,0 4.9498,4.9498 0 1 1 9.8995,0 z"
         transform="matrix(0.77267,-0.34863,0.3339,0.80676,10.872,62.514)" />
      <path
         style="opacity:0.46188001;fill:#808000;fill-rule:evenodd"
         inkscape:connector-curvature="0"
         id="path1020"
         d="m 75.66,484.56 a 4.9498,4.9498 0 1 1 -9.8995,0 4.9498,4.9498 0 1 1 9.8995,0 z"
         transform="matrix(0.69065,-0.1469,0.14069,0.72112,112.9,64.778)" />
      <path
         style="opacity:0.46188001;fill:#808000;fill-rule:evenodd"
         inkscape:connector-curvature="0"
         id="path1022"
         d="m 75.66,484.56 a 4.9498,4.9498 0 1 1 -9.8995,0 4.9498,4.9498 0 1 1 9.8995,0 z"
         transform="matrix(0.81107,-0.00331,0.00317,0.84686,155.57,-1.7867)" />
      <path
         style="opacity:0.46188001;fill:#808000;fill-rule:evenodd"
         inkscape:connector-curvature="0"
         id="path1024"
         d="m 75.66,484.56 a 4.9498,4.9498 0 1 1 -9.8995,0 4.9498,4.9498 0 1 1 9.8995,0 z"
         transform="matrix(0.85323,0.05979,-0.05726,0.89088,171.65,-31.162)" />
      <path
         style="opacity:0.46188001;fill:#808000;fill-rule:evenodd"
         inkscape:connector-curvature="0"
         id="path1026"
         d="m 75.66,484.56 a 4.9498,4.9498 0 1 1 -9.8995,0 4.9498,4.9498 0 1 1 9.8995,0 z"
         transform="matrix(0.73639,-0.32523,0.31149,0.76888,-17.865,48.462)" />
      <path
         style="opacity:0.46188001;fill:#808000;fill-rule:evenodd"
         inkscape:connector-curvature="0"
         id="path1028"
         d="m 75.66,484.56 a 4.9498,4.9498 0 1 1 -9.8995,0 4.9498,4.9498 0 1 1 9.8995,0 z"
         transform="matrix(0.74705,-0.37564,0.35977,0.78001,-18.406,28.512)" />
      <path
         style="opacity:0.46188001;fill:#808000;fill-rule:evenodd"
         inkscape:connector-curvature="0"
         id="path1030"
         d="m 75.66,484.56 a 4.9498,4.9498 0 1 1 -9.8995,0 4.9498,4.9498 0 1 1 9.8995,0 z"
         transform="matrix(0.56109,0.42557,-0.40759,0.58584,330.52,21.451)" />
      <path
         style="opacity:0.46188001;fill:#808000;fill-rule:evenodd"
         inkscape:connector-curvature="0"
         id="path1032"
         d="m 75.66,484.56 a 4.9498,4.9498 0 1 1 -9.8995,0 4.9498,4.9498 0 1 1 9.8995,0 z"
         transform="matrix(0.79355,-0.19726,0.18892,0.82857,15.3,-38.042)" />
      <path
         style="opacity:0.46188001;fill:#808000;fill-rule:evenodd"
         inkscape:connector-curvature="0"
         id="path1034"
         d="m 75.66,484.56 a 4.9498,4.9498 0 1 1 -9.8995,0 4.9498,4.9498 0 1 1 9.8995,0 z"
         transform="matrix(0.79883,0.24318,-0.2329,0.83407,218.03,-84.415)" />
      <path
         style="opacity:0.46188001;fill:#808000;fill-rule:evenodd"
         inkscape:connector-curvature="0"
         id="path1036"
         d="m 75.66,484.56 a 4.9498,4.9498 0 1 1 -9.8995,0 4.9498,4.9498 0 1 1 9.8995,0 z"
         transform="matrix(0.76542,-0.38198,0.36584,0.79919,-84.073,12.588)" />
      <path
         style="opacity:0.46188001;fill:#808000;fill-rule:evenodd"
         inkscape:connector-curvature="0"
         id="path1038"
         d="m 75.66,484.56 a 4.9498,4.9498 0 1 1 -9.8995,0 4.9498,4.9498 0 1 1 9.8995,0 z"
         transform="matrix(0.84975,-0.07234,0.06928,0.88724,36.724,-50.191)" />
      <path
         style="opacity:0.46188001;fill:#808000;fill-rule:evenodd"
         inkscape:connector-curvature="0"
         id="path1040"
         d="m 75.66,484.56 a 4.9498,4.9498 0 1 1 -9.8995,0 4.9498,4.9498 0 1 1 9.8995,0 z"
         transform="matrix(0.82899,-0.14062,0.13468,0.86556,-12.801,-40.819)" />
      <path
         style="opacity:0.46188001;fill:#808000;fill-rule:evenodd"
         inkscape:connector-curvature="0"
         id="path1042"
         d="m 75.66,484.56 a 4.9498,4.9498 0 1 1 -9.8995,0 4.9498,4.9498 0 1 1 9.8995,0 z"
         transform="matrix(0.72609,-0.05329,0.05104,0.75813,53.645,-0.15854)" />
      <path
         style="opacity:0.46188001;fill:#808000;fill-rule:evenodd"
         inkscape:connector-curvature="0"
         id="path1044"
         d="m 75.66,484.56 a 4.9498,4.9498 0 1 1 -9.8995,0 4.9498,4.9498 0 1 1 9.8995,0 z"
         transform="matrix(0.75149,-0.06538,0.06262,0.78465,26.927,2.5521)" />
      <path
         style="opacity:0.46188001;fill:#808000;fill-rule:evenodd"
         inkscape:connector-curvature="0"
         id="path1046"
         d="m 75.66,484.56 a 4.9498,4.9498 0 1 1 -9.8995,0 4.9498,4.9498 0 1 1 9.8995,0 z"
         transform="matrix(0.84817,0.10708,-0.10256,0.8856,170.3,11.51)" />
      <path
         style="opacity:0.46188001;fill:#808000;fill-rule:evenodd"
         inkscape:connector-curvature="0"
         id="path1048"
         d="m 75.66,484.56 a 4.9498,4.9498 0 1 1 -9.8995,0 4.9498,4.9498 0 1 1 9.8995,0 z"
         transform="matrix(0.74205,-0.29931,0.28666,0.77479,33.042,93.057)" />
      <path
         style="opacity:0.46188001;fill:#808000;fill-rule:evenodd"
         inkscape:connector-curvature="0"
         id="path1050"
         d="m 75.66,484.56 a 4.9498,4.9498 0 1 1 -9.8995,0 4.9498,4.9498 0 1 1 9.8995,0 z"
         transform="matrix(0.71767,-0.04234,0.04055,0.74933,118.53,102.41)" />
      <path
         style="opacity:0.46188001;fill:#808000;fill-rule:evenodd"
         inkscape:connector-curvature="0"
         id="path1052"
         d="m 75.66,484.56 a 4.9498,4.9498 0 1 1 -9.8995,0 4.9498,4.9498 0 1 1 9.8995,0 z"
         transform="matrix(0.69248,-0.23431,0.22441,0.72303,47.044,136.1)" />
      <path
         style="opacity:0.46188001;fill:#808000;fill-rule:evenodd"
         inkscape:connector-curvature="0"
         id="path1054"
         d="m 75.66,484.56 a 4.9498,4.9498 0 1 1 -9.8995,0 4.9498,4.9498 0 1 1 9.8995,0 z"
         transform="matrix(0.78155,-0.22834,0.21869,0.81603,80.307,58.88)" />
      <path
         style="opacity:0.46188001;fill:#808000;fill-rule:evenodd"
         inkscape:connector-curvature="0"
         id="path1056"
         d="m 75.66,484.56 a 4.9498,4.9498 0 1 1 -9.8995,0 4.9498,4.9498 0 1 1 9.8995,0 z"
         transform="matrix(0.65686,0.14279,-0.13675,0.68584,218.17,101.91)" />
      <path
         style="opacity:0.46188001;fill:#808000;fill-rule:evenodd"
         inkscape:connector-curvature="0"
         id="path1058"
         d="m 75.66,484.56 a 4.9498,4.9498 0 1 1 -9.8995,0 4.9498,4.9498 0 1 1 9.8995,0 z"
         transform="matrix(0.76594,-0.29454,0.28209,0.79974,-63.57,123.35)" />
      <path
         style="opacity:0.46188001;fill:#808000;fill-rule:evenodd"
         inkscape:connector-curvature="0"
         id="path1060"
         d="m 75.66,484.56 a 4.9498,4.9498 0 1 1 -9.8995,0 4.9498,4.9498 0 1 1 9.8995,0 z"
         transform="matrix(0.76949,-0.29241,0.28006,0.80344,-84.207,151.96)" />
      <path
         style="opacity:0.46188001;fill:#808000;fill-rule:evenodd"
         inkscape:connector-curvature="0"
         id="path1062"
         d="m 75.66,484.56 a 4.9498,4.9498 0 1 1 -9.8995,0 4.9498,4.9498 0 1 1 9.8995,0 z"
         transform="matrix(0.73139,-0.3959,0.37917,0.76365,-124.65,185.73)" />
      <path
         style="opacity:0.88788997"
         inkscape:connector-curvature="0"
         id="path1064"
         d="m 99.603,438.55 c 5.1444,11.134 26.368,12.814 38.383,13.332 9.9848,0.41878 15.34,1.1096 19.738,2.4681 3.6179,1.1175 5.9143,3.0878 7.1388,5.7014 1.2245,2.6136 1.423,6.0544 0.23639,10.292 -0.99373,3.549 -4.4974,7.1298 -9.7154,9.2309 -5.1456,2.0719 -8.089,2.7504 -24.04,5.5286 -15.398,2.6819 -21.845,4.3742 -27.87,7.4785 -5.2506,2.7052 -8.9984,5.6659 -11.37,9.6505 -2.3716,3.9846 -3.2572,8.8093 -3.2621,14.932 -0.005,6.5522 0.74023,21.44 1.6311,32.481 0.55866,6.924 1.6372,12.057 3.8058,16.092 4.6221,7.3724 10.681,9.5986 18.027,9.5608 -20.108,-9.7042 -25.008,-54.578 -16.987,-70.968 1.8771,-3.1535 4.9237,-5.6646 9.8336,-8.1942 5.5644,-2.8669 11.495,-4.4909 26.806,-7.1576 15.978,-2.7828 13.808,-1.5172 21.965,-3.911 9.1641,-2.6895 16.06,-7.3557 18.27,-13.108 2.0976,-5.4601 1.9185,-10.483 -0.72068,-14.589 -2.63918,-4.106 -7.6834,-7.1037 -14.378,-8.6109 -18.653,-2.988 -25.683,0.32107 -41.683,-2.9732 -6.0411,-0.92544 -12.615,-5.1786 -15.808,-7.2357 z" />
    </g>
    <path
       inkscape:connector-curvature="0"
       id="path1068"
       d="m 30.019531,129.12109 c -0.237147,0.003 -0.474198,0.0118 -0.710937,0.0273 h -0.910156 v 0.0918 C -1.1805081,118.78885 -29.792115,113.76554 15.576172,144.98238 v 0.0215 c -37.967375,21.17374 -29.121682,27.48844 14.470703,15.83398 0.853581,-0.003 1.705218,-0.0896 2.544922,-0.25781 H 156.07617 c 2.51456,1.22168 5.16578,1.60595 7.64063,1.10742 7.15592,-1.46078 11.07648,-9.79241 8.75781,-18.61133 -2.13278,-8.0944 -8.8422,-13.90336 -15.61523,-13.51953 v -0.4082 H 30.525391 c -0.168462,-0.0123 -0.337108,-0.0214 -0.50586,-0.0273 z"
       style="opacity:1;fill:#ff5555;fill-opacity:1;stroke:none;stroke-width:12.39212227;stroke-miterlimit:4;stroke-dasharray:none;stroke-opacity:1;paint-order:markers fill stroke"
       sodipodi:nodetypes="cccccccccccccccc" />
  </g>
  <g
     transform="translate(8.3939609,-49.708257)"
     inkscape:groupmode="layer"
     id="g1172"
     inkscape:label="dragon 2"
     style="display:none">
    <g
       transform="translate(0,-261.42)"
       id="g1168">
      <path
         d="m 134.91,398.62 c -5.0188,1.6548 -10.039,3.1905 -15.578,2.9618 -11.634,-0.48039 -21.335,-9.9694 -32.739,-10.44 -12.991,-0.53643 -18.409,3.6499 -29.808,7.8734 -5.9075,2.1887 -13.406,-0.50671 -19.336,-0.12341 -8.5341,0.55164 -10.984,12.763 -1.5129,16.734 4.5419,1.9043 11.451,5.0187 23.142,2.8877 6.9324,-1.2636 15.848,-8.6323 22.906,-9.0828 10.33,-0.65932 24.099,8.0143 35.032,8.4657 6.9767,0.28809 13.283,-1.8702 19.644,-3.7516 -0.0545,-0.90588 -0.13878,-1.805 -0.16548,-2.715 -0.0536,-1.8288 -0.0867,-3.6409 -0.16547,-5.3559 -0.0788,-1.715 -0.20936,-3.3119 -0.49641,-4.7388 -0.14352,-0.71348 -0.31372,-1.3904 -0.54368,-1.9992 -0.1002,-0.26512 -0.25859,-0.47345 -0.37822,-0.71576 z"
         id="path1076"
         inkscape:connector-curvature="0"
         style="fill:#ff0000" />
      <path
         d="m 134.91,398.62 c 0.11963,0.24231 0.27808,0.45064 0.37822,0.71576 0.22996,0.60883 0.40016,1.2857 0.54368,1.9992 0.28705,1.427 0.41766,3.0239 0.49641,4.7388 0.0788,1.7149 0.11177,3.5271 0.16547,5.3559 0.0267,0.90999 0.11107,1.8091 0.16548,2.715 4.869,-1.4403 9.7616,-2.7352 15.034,-2.5175 4.3824,0.18096 12.138,0.3432 15.176,3.7763 2.0189,2.2815 6.0681,3.0314 5.5787,3.0111 -0.19087,-0.008 0.39109,-1.3169 0.42549,-1.3822 0.48516,-0.92029 0.48239,-3.1274 0.52005,-4.1218 0.10717,-2.8295 0.57872,-6.8023 1.702,-9.4283 -9,-4.2189 -19.584,-10.123 -30.376,-7.7747 -3.3643,0.73203 -6.5838,1.8487 -9.81,2.9124 z"
         id="path1078"
         inkscape:connector-curvature="0"
         style="fill:#d40000" />
      <path
         d="m 204.51,311.13 c -29.521,-0.17492 -60.014,12.797 -50.846,47.808 -0.97626,0.24097 -1.745,1.064 -1.9384,2.0979 -16.785,-2.8245 -54.906,-8.5435 -59.051,10.556 -0.58154,2.6795 -1.2204,17.153 1.3988,18.794 8.9878,0.32504 22.962,-1.3765 36.75,-1.4064 13.788,-0.0299 26.065,1.0197 33.928,4.5114 8.827,3.9199 9.9154,27.687 -1.4656,29.668 -28.796,7.4733 -61.893,-0.20334 -61.893,-0.20334 0,0 -5.0055,5.3313 -3.8222,10.273 8.0529,33.633 76.392,0.43336 69.521,36.306 -4.621,24.124 -62.274,9.4242 -74.91,35.813 -3.9785,8.308 -0.63824,25.602 -0.63824,34.455 0,7.9597 0.4741,22.363 6.3588,28.507 6.1525,6.4239 12.531,7.281 20.944,7.281 37.871,0 8.9636,-46.232 32.999,-62.962 2.4274,-1.6896 9.5371,-3.6472 12.694,-1.9992 19.858,10.367 0.90775,56.612 26.664,64.295 49.456,14.754 1.3129,-63.197 29.217,-72.909 20.907,-7.2763 13.559,45.294 30.47,49.708 28.494,7.4378 8.6273,-49.607 13.947,-66.27 8.7077,-27.276 25.709,31.649 29.855,33.814 17.196,8.9773 23.341,-15.749 19.667,-29.173 -12.432,-45.43 -59.025,-17.858 -59.025,-73.575 0,-11.61 6.7134,-21.918 8.2498,-33.147 3.262,-23.842 -2.7989,-56.302 -26.664,-66.27 -8.8982,-3.7163 -20.578,-5.9028 -32.408,-5.9729 z"
         id="path1080"
         inkscape:connector-curvature="0"
         style="fill:#b3b3b3" />
      <path
         d="m 246.56,390.49 c -18.547,6.4552 -13.369,-13.415 -20.354,-29.294 -7.7903,-17.709 -23.119,-4.2621 -25.855,-25.847 -2.736,-21.5849 39.999,-20.513 51.19,3.1071 11.191,23.6201 8.9964,46.093 -4.9801,52.034 z"
         id="path1082"
         inkscape:connector-curvature="0"
         style="fill:#e6e6e6" />
      <path
         d="m 308.78,484.56 c 3.6978,8.7993 2.551,18.386 -0.90031,19.967 -3.45131,1.581 -4.4233,-6.8382 -8.1211,-15.638 -3.6978,-8.7998 -16.209,-21.069 -12.758,-22.65 3.451,-1.581 18.082,9.5212 21.779,18.32 z"
         id="path1084"
         inkscape:connector-curvature="0"
         style="fill:#e6e6e6;fill-rule:evenodd" />
      <path
         d="m 262.74,516.95 c 1.7898,11.218 -1.0492,22.609 -5.3891,23.385 -4.3399,0.776 -3.1884,-9.9143 -4.9782,-21.132 -1.7898,-11.2177 -5.5756,-27.093 -1.2358,-27.869 4.3398,-0.776 9.8133,14.399 11.603,25.617 z"
         id="path1086"
         inkscape:connector-curvature="0"
         style="fill:#e6e6e6;fill-rule:evenodd" />
      <path
         d="m 196.13,369.38 c 0,9.4718 -7.354,17.15 -16.425,17.15 -9.071,0 -16.425,-7.6784 -16.425,-17.15 0,-9.4716 7.3539,-17.15 16.425,-17.15 9.0711,0 16.425,7.6784 16.425,17.15 z"
         id="path1088"
         inkscape:connector-curvature="0"
         style="fill:url(#radialGradient1074);fill-rule:evenodd" />
      <path
         d="m 183.68,348.74 c -3.2139,0 -6.1013,-0.0798 -8.6044,1.629 0.65137,-0.0659 2.5469,-0.3949 3.2148,-0.3949 5.5968,0 11.418,2.6623 15.083,6.4894 6.248,8.9263 5.2471,11.869 3.7804,17.748 1.546,-2.5638 2.4584,-5.5825 2.4584,-8.836 0,-9.1889 -7.1317,-16.635 -15.932,-16.635 z"
         id="path1090"
         inkscape:connector-curvature="0"
         style="fill:#f2f2f2" />
      <path
         d="m 175.41,390.7 c 3.2139,0 6.1013,0.0798 8.6044,-1.629 -0.65138,0.0659 -2.5469,0.39491 -3.2148,0.39491 -5.5968,0 -11.418,-2.6623 -15.083,-6.4894 -6.248,-8.9263 -5.2471,-11.869 -3.7804,-17.748 -1.546,2.5638 -2.4584,5.5825 -2.4584,8.836 0,9.1889 7.1317,16.635 15.932,16.635 z"
         id="path1092"
         inkscape:connector-curvature="0"
         style="fill:#999999" />
      <path
         d="m 175.87,370.4 c 0,5.8526 0.39232,10.597 -0.85575,10.597 -1.24807,0 -3.6639,-4.7445 -3.6639,-10.597 0,-5.8525 2.4158,-10.597 3.6639,-10.597 1.2481,0 0.85575,4.7444 0.85575,10.597 z"
         id="path1094"
         inkscape:connector-curvature="0"
         style="fill-rule:evenodd" />
      <path
         d="m 176.65,368.2 c -2.9785,-0.62305 -4.7288,-1.6624 -2.175,-4.027 2.6055,-2.4125 7.5215,-6.476 9.9588,-4.1701 2.5951,2.4552 2.7334,5.2554 2.3078,6.8104 -0.70401,2.5727 -6.9997,1.94 -10.092,1.3867 z"
         id="path1096"
         inkscape:connector-curvature="0"
         style="fill:#ebffff;fill-opacity:0.66129001" />
      <path
         d="m 208.71,539.12 c 3.6619,24.977 -0.24692,30.164 -7.7961,31.099 -2.154,-11.964 -9.3432,-63.399 -3.807,-63.79 4.3399,-0.93598 9.6239,19.191 11.603,32.691 z"
         id="path1098"
         inkscape:connector-curvature="0"
         style="fill:#e6e6e6;fill-rule:evenodd" />
      <path
         d="m 135.04,539.77 c -0.43337,13.711 1.7896,26.704 -11.897,27.235 -6.1392,0.23825 -9.612,-11.105 -8.0047,-24.72 2.6677,-22.597 23.721,-38.817 28.358,-34.61 4.4204,4.0103 -7.68,7.5227 -8.4566,32.094 z"
         id="path1100"
         inkscape:connector-curvature="0"
         style="fill:#e6e6e6;fill-rule:evenodd" />
      <path
         d="m 84.185,400.04 c -9.0249,0.027 -14.377,3.9863 -19.856,7.0589 -5.479,3.0726 -10.827,3.1936 -20.707,0.6113 -1.4868,-0.29582 -3.0972,0.84753 -3.3804,2.3999 -0.2832,1.55237 0.81198,3.2338 2.2988,3.5294 15.137,2.3333 17.505,-0.55392 23.207,-3.7516 5.702,-3.19768 10.244,-6.6641 18.438,-6.6887 2.921,-0.009 7.2692,2.0894 12.41,4.5414 5.1408,2.452 11.156,5.1833 17.942,5.9482 0.79219,0.0842 1.5863,-0.592 1.6667,-1.4192 0.0804,-0.8272 -0.56723,-1.6562 -1.3594,-1.7401 -6.2106,-0.70016 -11.902,-3.2227 -16.996,-5.652 -5.094,-2.4293 -9.5043,-4.85 -13.663,-4.8376 z"
         id="path1102"
         inkscape:connector-curvature="0"
         style="opacity:0.88788997;fill:#ffffff" />
      <path
         d="m 110.4,574.76 c 0,0 -3.852,-1.114 -5.4747,-1.8897 -8.3495,-3.9912 -11.468,-9.7933 -12.564,-23.376 -0.88636,-10.986 -1.6443,-25.928 -1.6392,-32.314 0.01,-11.851 3.4222,-17.584 13.583,-22.819 5.7947,-2.9856 11.986,-4.6423 27.34,-7.3166 15.965,-2.7805 19.158,-3.5174 24.407,-5.6306 5.6148,-2.2608 9.6265,-6.1479 10.848,-10.511 2.5626,-9.152 -0.62557,-15.957 -8.635,-18.431 -4.6306,-1.4303 -10.161,-2.1282 -20.201,-2.5494 -21.008,-0.88115 -28.761,-2.5267 -34.902,-7.4087 -1.3601,-1.8514 -6.3813,-8.0879 -2.406,-5.7209 6.6354,2.6252 16.269,3.9896 35.436,5.0187 19.976,1.0726 28.561,1.7257 33.601,2.5561 8.6533,1.4257 15.413,4.3866 16.872,7.3906 2.4092,4.9598 3.7366,18.735 2.5634,26.603 -0.83647,5.6099 -3.5365,8.0426 -11.65,10.497 -3.9908,1.207 -4.9256,-0.17477 -16.782,1.0109 -23.236,2.3236 -51.775,-1.1701 -59.456,24.023 -1.1724,3.8982 -1.2506,5.0215 -1.2221,17.568 0.0279,12.279 0.13389,13.778 1.2642,17.871 2.268,8.2131 5.0762,13.46 9.612,17.96 2.2346,2.217 5.5769,4.4026 9.8177,5.1127 2.78,0.76505 4.1423,1.1006 5.8356,1.9156 -0.71909,0.75081 -16.247,0.4404 -16.247,0.4404 z"
         id="path1104"
         inkscape:connector-curvature="0"
         style="opacity:0.88788997;fill:#999999;fill-rule:evenodd;stroke:#999999;stroke-width:0.77293998" />
      <path
         d="m 153.38,357.65 c -0.3024,-0.4895 -0.75729,-3.8516 -1.0643,-6.6406 -0.32353,-2.9391 -0.1405,-7.8421 0.39074,-10.468 0.86442,-4.2723 2.4809,-8.0756 4.8673,-11.452 1.4558,-2.0599 4.9162,-5.577 6.9934,-7.1083 1.6114,-1.1879 5.5423,-3.6136 5.6588,-3.492 -11.599,10.444 -8.8188,27.289 -5.0147,37.454 -3.3683,5.6587 -8.4468,3.9661 -11.831,1.7071 z"
         id="path1106"
         inkscape:connector-curvature="0"
         style="opacity:0.88788997;fill:#999999;fill-rule:evenodd" />
      <path
         transform="matrix(0.79766,-0.20428,0.19565,0.83286,23.167,38.286)"
         d="m 75.66,484.56 a 4.9498,4.9498 0 1 1 -9.8995,0 4.9498,4.9498 0 1 1 9.8995,0 z"
         id="path1108"
         inkscape:connector-curvature="0"
         style="opacity:0.46188001;fill:#808000;fill-rule:evenodd" />
      <path
         transform="matrix(0.79608,0.02391,-0.0229,0.8312,149.88,10.519)"
         d="m 75.66,484.56 a 4.9498,4.9498 0 1 1 -9.8995,0 4.9498,4.9498 0 1 1 9.8995,0 z"
         id="path1110"
         inkscape:connector-curvature="0"
         style="opacity:0.46188001;fill:#808000;fill-rule:evenodd" />
      <path
         transform="matrix(0.70822,-0.22376,0.2143,0.73947,53.593,80.403)"
         d="m 75.66,484.56 a 4.9498,4.9498 0 1 1 -9.8995,0 4.9498,4.9498 0 1 1 9.8995,0 z"
         id="path1112"
         inkscape:connector-curvature="0"
         style="opacity:0.46188001;fill:#808000;fill-rule:evenodd" />
      <path
         transform="matrix(0.68464,0.34141,-0.32698,0.71484,304.54,57.955)"
         d="m 75.66,484.56 a 4.9498,4.9498 0 1 1 -9.8995,0 4.9498,4.9498 0 1 1 9.8995,0 z"
         id="path1114"
         inkscape:connector-curvature="0"
         style="opacity:0.46188001;fill:#808000;fill-rule:evenodd" />
      <path
         transform="matrix(0.66028,0.17867,-0.17112,0.68941,249.69,88.582)"
         d="m 75.66,484.56 a 4.9498,4.9498 0 1 1 -9.8995,0 4.9498,4.9498 0 1 1 9.8995,0 z"
         id="path1116"
         inkscape:connector-curvature="0"
         style="opacity:0.46188001;fill:#808000;fill-rule:evenodd" />
      <path
         transform="matrix(0.62881,0.35998,-0.34477,0.65656,338.3,79.132)"
         d="m 75.66,484.56 a 4.9498,4.9498 0 1 1 -9.8995,0 4.9498,4.9498 0 1 1 9.8995,0 z"
         id="path1118"
         inkscape:connector-curvature="0"
         style="opacity:0.46188001;fill:#808000;fill-rule:evenodd" />
      <path
         transform="matrix(0.77267,-0.34863,0.3339,0.80676,10.872,62.514)"
         d="m 75.66,484.56 a 4.9498,4.9498 0 1 1 -9.8995,0 4.9498,4.9498 0 1 1 9.8995,0 z"
         id="path1120"
         inkscape:connector-curvature="0"
         style="opacity:0.46188001;fill:#808000;fill-rule:evenodd" />
      <path
         transform="matrix(0.69065,-0.1469,0.14069,0.72112,112.9,64.778)"
         d="m 75.66,484.56 a 4.9498,4.9498 0 1 1 -9.8995,0 4.9498,4.9498 0 1 1 9.8995,0 z"
         id="path1122"
         inkscape:connector-curvature="0"
         style="opacity:0.46188001;fill:#808000;fill-rule:evenodd" />
      <path
         transform="matrix(0.81107,-0.00331,0.00317,0.84686,155.57,-1.7867)"
         d="m 75.66,484.56 a 4.9498,4.9498 0 1 1 -9.8995,0 4.9498,4.9498 0 1 1 9.8995,0 z"
         id="path1124"
         inkscape:connector-curvature="0"
         style="opacity:0.46188001;fill:#808000;fill-rule:evenodd" />
      <path
         transform="matrix(0.85323,0.05979,-0.05726,0.89088,171.65,-31.162)"
         d="m 75.66,484.56 a 4.9498,4.9498 0 1 1 -9.8995,0 4.9498,4.9498 0 1 1 9.8995,0 z"
         id="path1126"
         inkscape:connector-curvature="0"
         style="opacity:0.46188001;fill:#808000;fill-rule:evenodd" />
      <path
         transform="matrix(0.73639,-0.32523,0.31149,0.76888,-17.865,48.462)"
         d="m 75.66,484.56 a 4.9498,4.9498 0 1 1 -9.8995,0 4.9498,4.9498 0 1 1 9.8995,0 z"
         id="path1128"
         inkscape:connector-curvature="0"
         style="opacity:0.46188001;fill:#808000;fill-rule:evenodd" />
      <path
         transform="matrix(0.74705,-0.37564,0.35977,0.78001,-18.406,28.512)"
         d="m 75.66,484.56 a 4.9498,4.9498 0 1 1 -9.8995,0 4.9498,4.9498 0 1 1 9.8995,0 z"
         id="path1130"
         inkscape:connector-curvature="0"
         style="opacity:0.46188001;fill:#808000;fill-rule:evenodd" />
      <path
         transform="matrix(0.56109,0.42557,-0.40759,0.58584,330.52,21.451)"
         d="m 75.66,484.56 a 4.9498,4.9498 0 1 1 -9.8995,0 4.9498,4.9498 0 1 1 9.8995,0 z"
         id="path1132"
         inkscape:connector-curvature="0"
         style="opacity:0.46188001;fill:#808000;fill-rule:evenodd" />
      <path
         transform="matrix(0.79355,-0.19726,0.18892,0.82857,15.3,-38.042)"
         d="m 75.66,484.56 a 4.9498,4.9498 0 1 1 -9.8995,0 4.9498,4.9498 0 1 1 9.8995,0 z"
         id="path1134"
         inkscape:connector-curvature="0"
         style="opacity:0.46188001;fill:#808000;fill-rule:evenodd" />
      <path
         transform="matrix(0.79883,0.24318,-0.2329,0.83407,218.03,-84.415)"
         d="m 75.66,484.56 a 4.9498,4.9498 0 1 1 -9.8995,0 4.9498,4.9498 0 1 1 9.8995,0 z"
         id="path1136"
         inkscape:connector-curvature="0"
         style="opacity:0.46188001;fill:#808000;fill-rule:evenodd" />
      <path
         transform="matrix(0.76542,-0.38198,0.36584,0.79919,-84.073,12.588)"
         d="m 75.66,484.56 a 4.9498,4.9498 0 1 1 -9.8995,0 4.9498,4.9498 0 1 1 9.8995,0 z"
         id="path1138"
         inkscape:connector-curvature="0"
         style="opacity:0.46188001;fill:#808000;fill-rule:evenodd" />
      <path
         transform="matrix(0.84975,-0.07234,0.06928,0.88724,36.724,-50.191)"
         d="m 75.66,484.56 a 4.9498,4.9498 0 1 1 -9.8995,0 4.9498,4.9498 0 1 1 9.8995,0 z"
         id="path1140"
         inkscape:connector-curvature="0"
         style="opacity:0.46188001;fill:#808000;fill-rule:evenodd" />
      <path
         transform="matrix(0.82899,-0.14062,0.13468,0.86556,-12.801,-40.819)"
         d="m 75.66,484.56 a 4.9498,4.9498 0 1 1 -9.8995,0 4.9498,4.9498 0 1 1 9.8995,0 z"
         id="path1142"
         inkscape:connector-curvature="0"
         style="opacity:0.46188001;fill:#808000;fill-rule:evenodd" />
      <path
         transform="matrix(0.72609,-0.05329,0.05104,0.75813,53.645,-0.15854)"
         d="m 75.66,484.56 a 4.9498,4.9498 0 1 1 -9.8995,0 4.9498,4.9498 0 1 1 9.8995,0 z"
         id="path1144"
         inkscape:connector-curvature="0"
         style="opacity:0.46188001;fill:#808000;fill-rule:evenodd" />
      <path
         transform="matrix(0.75149,-0.06538,0.06262,0.78465,26.927,2.5521)"
         d="m 75.66,484.56 a 4.9498,4.9498 0 1 1 -9.8995,0 4.9498,4.9498 0 1 1 9.8995,0 z"
         id="path1146"
         inkscape:connector-curvature="0"
         style="opacity:0.46188001;fill:#808000;fill-rule:evenodd" />
      <path
         transform="matrix(0.84817,0.10708,-0.10256,0.8856,170.3,11.51)"
         d="m 75.66,484.56 a 4.9498,4.9498 0 1 1 -9.8995,0 4.9498,4.9498 0 1 1 9.8995,0 z"
         id="path1148"
         inkscape:connector-curvature="0"
         style="opacity:0.46188001;fill:#808000;fill-rule:evenodd" />
      <path
         transform="matrix(0.74205,-0.29931,0.28666,0.77479,33.042,93.057)"
         d="m 75.66,484.56 a 4.9498,4.9498 0 1 1 -9.8995,0 4.9498,4.9498 0 1 1 9.8995,0 z"
         id="path1150"
         inkscape:connector-curvature="0"
         style="opacity:0.46188001;fill:#808000;fill-rule:evenodd" />
      <path
         transform="matrix(0.71767,-0.04234,0.04055,0.74933,118.53,102.41)"
         d="m 75.66,484.56 a 4.9498,4.9498 0 1 1 -9.8995,0 4.9498,4.9498 0 1 1 9.8995,0 z"
         id="path1152"
         inkscape:connector-curvature="0"
         style="opacity:0.46188001;fill:#808000;fill-rule:evenodd" />
      <path
         transform="matrix(0.69248,-0.23431,0.22441,0.72303,47.044,136.1)"
         d="m 75.66,484.56 a 4.9498,4.9498 0 1 1 -9.8995,0 4.9498,4.9498 0 1 1 9.8995,0 z"
         id="path1154"
         inkscape:connector-curvature="0"
         style="opacity:0.46188001;fill:#808000;fill-rule:evenodd" />
      <path
         transform="matrix(0.78155,-0.22834,0.21869,0.81603,80.307,58.88)"
         d="m 75.66,484.56 a 4.9498,4.9498 0 1 1 -9.8995,0 4.9498,4.9498 0 1 1 9.8995,0 z"
         id="path1156"
         inkscape:connector-curvature="0"
         style="opacity:0.46188001;fill:#808000;fill-rule:evenodd" />
      <path
         transform="matrix(0.65686,0.14279,-0.13675,0.68584,218.17,101.91)"
         d="m 75.66,484.56 a 4.9498,4.9498 0 1 1 -9.8995,0 4.9498,4.9498 0 1 1 9.8995,0 z"
         id="path1158"
         inkscape:connector-curvature="0"
         style="opacity:0.46188001;fill:#808000;fill-rule:evenodd" />
      <path
         transform="matrix(0.76594,-0.29454,0.28209,0.79974,-63.57,123.35)"
         d="m 75.66,484.56 a 4.9498,4.9498 0 1 1 -9.8995,0 4.9498,4.9498 0 1 1 9.8995,0 z"
         id="path1160"
         inkscape:connector-curvature="0"
         style="opacity:0.46188001;fill:#808000;fill-rule:evenodd" />
      <path
         transform="matrix(0.76949,-0.29241,0.28006,0.80344,-84.207,151.96)"
         d="m 75.66,484.56 a 4.9498,4.9498 0 1 1 -9.8995,0 4.9498,4.9498 0 1 1 9.8995,0 z"
         id="path1162"
         inkscape:connector-curvature="0"
         style="opacity:0.46188001;fill:#808000;fill-rule:evenodd" />
      <path
         transform="matrix(0.73139,-0.3959,0.37917,0.76365,-124.65,185.73)"
         d="m 75.66,484.56 a 4.9498,4.9498 0 1 1 -9.8995,0 4.9498,4.9498 0 1 1 9.8995,0 z"
         id="path1164"
         inkscape:connector-curvature="0"
         style="opacity:0.46188001;fill:#808000;fill-rule:evenodd" />
      <path
         d="m 99.603,438.55 c 5.1444,11.134 26.368,12.814 38.383,13.332 9.9848,0.41878 15.34,1.1096 19.738,2.4681 3.6179,1.1175 5.9143,3.0878 7.1388,5.7014 1.2245,2.6136 1.423,6.0544 0.23639,10.292 -0.99373,3.549 -4.4974,7.1298 -9.7154,9.2309 -5.1456,2.0719 -8.089,2.7504 -24.04,5.5286 -15.398,2.6819 -21.845,4.3742 -27.87,7.4785 -5.2506,2.7052 -8.9984,5.6659 -11.37,9.6505 -2.3716,3.9846 -3.2572,8.8093 -3.2621,14.932 -0.005,6.5522 0.74023,21.44 1.6311,32.481 0.55866,6.924 1.6372,12.057 3.8058,16.092 4.6221,7.3724 10.681,9.5986 18.027,9.5608 -20.108,-9.7042 -25.008,-54.578 -16.987,-70.968 1.8771,-3.1535 4.9237,-5.6646 9.8336,-8.1942 5.5644,-2.8669 11.495,-4.4909 26.806,-7.1576 15.978,-2.7828 13.808,-1.5172 21.965,-3.911 9.1641,-2.6895 16.06,-7.3557 18.27,-13.108 2.0976,-5.4601 1.9185,-10.483 -0.72068,-14.589 -2.63918,-4.106 -7.6834,-7.1037 -14.378,-8.6109 -18.653,-2.988 -25.683,0.32107 -41.683,-2.9732 -6.0411,-0.92544 -12.615,-5.1786 -15.808,-7.2357 z"
         id="path1166"
         inkscape:connector-curvature="0"
         style="opacity:0.88788997" />
    </g>
    <path
       sodipodi:nodetypes="cccccccccccccccc"
       style="opacity:1;fill:#ff5555;fill-opacity:1;stroke:none;stroke-width:12.39212227;stroke-miterlimit:4;stroke-dasharray:none;stroke-opacity:1;paint-order:markers fill stroke"
       d="m 30.019531,129.12109 c -0.237147,0.003 -0.474198,0.0118 -0.710937,0.0273 h -0.910156 v 0.0918 c -29.9541027,-7.26251 -60.381258,3.14634 -12.822266,15.74219 v 0.0215 c -38.857623,4.25902 -29.623158,17.9604 14.470703,15.83398 0.853581,-0.003 1.705218,-0.0896 2.544922,-0.25781 H 156.07617 c 2.51456,1.22168 5.16578,1.60595 7.64063,1.10742 7.15592,-1.46078 11.07648,-9.79241 8.75781,-18.61133 -2.13278,-8.0944 -8.8422,-13.90336 -15.61523,-13.51953 v -0.4082 H 30.525391 c -0.168462,-0.0123 -0.337108,-0.0214 -0.50586,-0.0273 z"
       id="path1170"
       inkscape:connector-curvature="0" />
  </g>
  <g
     style="display:none"
     inkscape:label="dragon 3"
     id="g1270"
     inkscape:groupmode="layer"
     transform="translate(8.3939609,-49.708257)">
    <g
       id="g1266"
       transform="translate(0,-261.42)">
      <path
         style="fill:#ff0000"
         inkscape:connector-curvature="0"
         id="path1174"
         d="m 134.91,398.62 c -5.0188,1.6548 -10.039,3.1905 -15.578,2.9618 -11.634,-0.48039 -21.335,-9.9694 -32.739,-10.44 -12.991,-0.53643 -18.409,3.6499 -29.808,7.8734 -5.9075,2.1887 -13.406,-0.50671 -19.336,-0.12341 -8.5341,0.55164 -10.984,12.763 -1.5129,16.734 4.5419,1.9043 11.451,5.0187 23.142,2.8877 6.9324,-1.2636 15.848,-8.6323 22.906,-9.0828 10.33,-0.65932 24.099,8.0143 35.032,8.4657 6.9767,0.28809 13.283,-1.8702 19.644,-3.7516 -0.0545,-0.90588 -0.13878,-1.805 -0.16548,-2.715 -0.0536,-1.8288 -0.0867,-3.6409 -0.16547,-5.3559 -0.0788,-1.715 -0.20936,-3.3119 -0.49641,-4.7388 -0.14352,-0.71348 -0.31372,-1.3904 -0.54368,-1.9992 -0.1002,-0.26512 -0.25859,-0.47345 -0.37822,-0.71576 z" />
      <path
         style="fill:#d40000"
         inkscape:connector-curvature="0"
         id="path1176"
         d="m 134.91,398.62 c 0.11963,0.24231 0.27808,0.45064 0.37822,0.71576 0.22996,0.60883 0.40016,1.2857 0.54368,1.9992 0.28705,1.427 0.41766,3.0239 0.49641,4.7388 0.0788,1.7149 0.11177,3.5271 0.16547,5.3559 0.0267,0.90999 0.11107,1.8091 0.16548,2.715 4.869,-1.4403 9.7616,-2.7352 15.034,-2.5175 4.3824,0.18096 12.138,0.3432 15.176,3.7763 2.0189,2.2815 6.0681,3.0314 5.5787,3.0111 -0.19087,-0.008 0.39109,-1.3169 0.42549,-1.3822 0.48516,-0.92029 0.48239,-3.1274 0.52005,-4.1218 0.10717,-2.8295 0.57872,-6.8023 1.702,-9.4283 -9,-4.2189 -19.584,-10.123 -30.376,-7.7747 -3.3643,0.73203 -6.5838,1.8487 -9.81,2.9124 z" />
      <path
         style="fill:#b3b3b3"
         inkscape:connector-curvature="0"
         id="path1178"
         d="m 204.51,311.13 c -29.521,-0.17492 -60.014,12.797 -50.846,47.808 -0.97626,0.24097 -1.745,1.064 -1.9384,2.0979 -16.785,-2.8245 -54.906,-8.5435 -59.051,10.556 -0.58154,2.6795 -1.2204,17.153 1.3988,18.794 8.9878,0.32504 22.962,-1.3765 36.75,-1.4064 13.788,-0.0299 26.065,1.0197 33.928,4.5114 8.827,3.9199 9.9154,27.687 -1.4656,29.668 -28.796,7.4733 -61.893,-0.20334 -61.893,-0.20334 0,0 -5.0055,5.3313 -3.8222,10.273 8.0529,33.633 76.392,0.43336 69.521,36.306 -4.621,24.124 -62.274,9.4242 -74.91,35.813 -3.9785,8.308 -0.63824,25.602 -0.63824,34.455 0,7.9597 0.4741,22.363 6.3588,28.507 6.1525,6.4239 12.531,7.281 20.944,7.281 37.871,0 8.9636,-46.232 32.999,-62.962 2.4274,-1.6896 9.5371,-3.6472 12.694,-1.9992 19.858,10.367 0.90775,56.612 26.664,64.295 49.456,14.754 1.3129,-63.197 29.217,-72.909 20.907,-7.2763 13.559,45.294 30.47,49.708 28.494,7.4378 8.6273,-49.607 13.947,-66.27 8.7077,-27.276 25.709,31.649 29.855,33.814 17.196,8.9773 23.341,-15.749 19.667,-29.173 -12.432,-45.43 -59.025,-17.858 -59.025,-73.575 0,-11.61 6.7134,-21.918 8.2498,-33.147 3.262,-23.842 -2.7989,-56.302 -26.664,-66.27 -8.8982,-3.7163 -20.578,-5.9028 -32.408,-5.9729 z" />
      <path
         style="fill:#e6e6e6"
         inkscape:connector-curvature="0"
         id="path1180"
         d="m 246.56,390.49 c -18.547,6.4552 -13.369,-13.415 -20.354,-29.294 -7.7903,-17.709 -23.119,-4.2621 -25.855,-25.847 -2.736,-21.5849 39.999,-20.513 51.19,3.1071 11.191,23.6201 8.9964,46.093 -4.9801,52.034 z" />
      <path
         style="fill:#e6e6e6;fill-rule:evenodd"
         inkscape:connector-curvature="0"
         id="path1182"
         d="m 308.78,484.56 c 3.6978,8.7993 2.551,18.386 -0.90031,19.967 -3.45131,1.581 -4.4233,-6.8382 -8.1211,-15.638 -3.6978,-8.7998 -16.209,-21.069 -12.758,-22.65 3.451,-1.581 18.082,9.5212 21.779,18.32 z" />
      <path
         style="fill:#e6e6e6;fill-rule:evenodd"
         inkscape:connector-curvature="0"
         id="path1184"
         d="m 262.74,516.95 c 1.7898,11.218 -1.0492,22.609 -5.3891,23.385 -4.3399,0.776 -3.1884,-9.9143 -4.9782,-21.132 -1.7898,-11.2177 -5.5756,-27.093 -1.2358,-27.869 4.3398,-0.776 9.8133,14.399 11.603,25.617 z" />
      <path
         style="fill:url(#radialGradient1074);fill-rule:evenodd"
         inkscape:connector-curvature="0"
         id="path1186"
         d="m 196.13,369.38 c 0,9.4718 -7.354,17.15 -16.425,17.15 -9.071,0 -16.425,-7.6784 -16.425,-17.15 0,-9.4716 7.3539,-17.15 16.425,-17.15 9.0711,0 16.425,7.6784 16.425,17.15 z" />
      <path
         style="fill:#f2f2f2"
         inkscape:connector-curvature="0"
         id="path1188"
         d="m 183.68,348.74 c -3.2139,0 -6.1013,-0.0798 -8.6044,1.629 0.65137,-0.0659 2.5469,-0.3949 3.2148,-0.3949 5.5968,0 11.418,2.6623 15.083,6.4894 6.248,8.9263 5.2471,11.869 3.7804,17.748 1.546,-2.5638 2.4584,-5.5825 2.4584,-8.836 0,-9.1889 -7.1317,-16.635 -15.932,-16.635 z" />
      <path
         style="fill:#999999"
         inkscape:connector-curvature="0"
         id="path1190"
         d="m 175.41,390.7 c 3.2139,0 6.1013,0.0798 8.6044,-1.629 -0.65138,0.0659 -2.5469,0.39491 -3.2148,0.39491 -5.5968,0 -11.418,-2.6623 -15.083,-6.4894 -6.248,-8.9263 -5.2471,-11.869 -3.7804,-17.748 -1.546,2.5638 -2.4584,5.5825 -2.4584,8.836 0,9.1889 7.1317,16.635 15.932,16.635 z" />
      <path
         style="fill-rule:evenodd"
         inkscape:connector-curvature="0"
         id="path1192"
         d="m 175.87,370.4 c 0,5.8526 0.39232,10.597 -0.85575,10.597 -1.24807,0 -3.6639,-4.7445 -3.6639,-10.597 0,-5.8525 2.4158,-10.597 3.6639,-10.597 1.2481,0 0.85575,4.7444 0.85575,10.597 z" />
      <path
         style="fill:#ebffff;fill-opacity:0.66129001"
         inkscape:connector-curvature="0"
         id="path1194"
         d="m 176.65,368.2 c -2.9785,-0.62305 -4.7288,-1.6624 -2.175,-4.027 2.6055,-2.4125 7.5215,-6.476 9.9588,-4.1701 2.5951,2.4552 2.7334,5.2554 2.3078,6.8104 -0.70401,2.5727 -6.9997,1.94 -10.092,1.3867 z" />
      <path
         style="fill:#e6e6e6;fill-rule:evenodd"
         inkscape:connector-curvature="0"
         id="path1196"
         d="m 208.71,539.12 c 3.6619,24.977 -0.24692,30.164 -7.7961,31.099 -2.154,-11.964 -9.3432,-63.399 -3.807,-63.79 4.3399,-0.93598 9.6239,19.191 11.603,32.691 z" />
      <path
         style="fill:#e6e6e6;fill-rule:evenodd"
         inkscape:connector-curvature="0"
         id="path1198"
         d="m 135.04,539.77 c -0.43337,13.711 1.7896,26.704 -11.897,27.235 -6.1392,0.23825 -9.612,-11.105 -8.0047,-24.72 2.6677,-22.597 23.721,-38.817 28.358,-34.61 4.4204,4.0103 -7.68,7.5227 -8.4566,32.094 z" />
      <path
         style="opacity:0.88788997;fill:#ffffff"
         inkscape:connector-curvature="0"
         id="path1200"
         d="m 84.185,400.04 c -9.0249,0.027 -14.377,3.9863 -19.856,7.0589 -5.479,3.0726 -10.827,3.1936 -20.707,0.6113 -1.4868,-0.29582 -3.0972,0.84753 -3.3804,2.3999 -0.2832,1.55237 0.81198,3.2338 2.2988,3.5294 15.137,2.3333 17.505,-0.55392 23.207,-3.7516 5.702,-3.19768 10.244,-6.6641 18.438,-6.6887 2.921,-0.009 7.2692,2.0894 12.41,4.5414 5.1408,2.452 11.156,5.1833 17.942,5.9482 0.79219,0.0842 1.5863,-0.592 1.6667,-1.4192 0.0804,-0.8272 -0.56723,-1.6562 -1.3594,-1.7401 -6.2106,-0.70016 -11.902,-3.2227 -16.996,-5.652 -5.094,-2.4293 -9.5043,-4.85 -13.663,-4.8376 z" />
      <path
         style="opacity:0.88788997;fill:#999999;fill-rule:evenodd;stroke:#999999;stroke-width:0.77293998"
         inkscape:connector-curvature="0"
         id="path1202"
         d="m 110.4,574.76 c 0,0 -3.852,-1.114 -5.4747,-1.8897 -8.3495,-3.9912 -11.468,-9.7933 -12.564,-23.376 -0.88636,-10.986 -1.6443,-25.928 -1.6392,-32.314 0.01,-11.851 3.4222,-17.584 13.583,-22.819 5.7947,-2.9856 11.986,-4.6423 27.34,-7.3166 15.965,-2.7805 19.158,-3.5174 24.407,-5.6306 5.6148,-2.2608 9.6265,-6.1479 10.848,-10.511 2.5626,-9.152 -0.62557,-15.957 -8.635,-18.431 -4.6306,-1.4303 -10.161,-2.1282 -20.201,-2.5494 -21.008,-0.88115 -28.761,-2.5267 -34.902,-7.4087 -1.3601,-1.8514 -6.3813,-8.0879 -2.406,-5.7209 6.6354,2.6252 16.269,3.9896 35.436,5.0187 19.976,1.0726 28.561,1.7257 33.601,2.5561 8.6533,1.4257 15.413,4.3866 16.872,7.3906 2.4092,4.9598 3.7366,18.735 2.5634,26.603 -0.83647,5.6099 -3.5365,8.0426 -11.65,10.497 -3.9908,1.207 -4.9256,-0.17477 -16.782,1.0109 -23.236,2.3236 -51.775,-1.1701 -59.456,24.023 -1.1724,3.8982 -1.2506,5.0215 -1.2221,17.568 0.0279,12.279 0.13389,13.778 1.2642,17.871 2.268,8.2131 5.0762,13.46 9.612,17.96 2.2346,2.217 5.5769,4.4026 9.8177,5.1127 2.78,0.76505 4.1423,1.1006 5.8356,1.9156 -0.71909,0.75081 -16.247,0.4404 -16.247,0.4404 z" />
      <path
         style="opacity:0.88788997;fill:#999999;fill-rule:evenodd"
         inkscape:connector-curvature="0"
         id="path1204"
         d="m 153.38,357.65 c -0.3024,-0.4895 -0.75729,-3.8516 -1.0643,-6.6406 -0.32353,-2.9391 -0.1405,-7.8421 0.39074,-10.468 0.86442,-4.2723 2.4809,-8.0756 4.8673,-11.452 1.4558,-2.0599 4.9162,-5.577 6.9934,-7.1083 1.6114,-1.1879 5.5423,-3.6136 5.6588,-3.492 -11.599,10.444 -8.8188,27.289 -5.0147,37.454 -3.3683,5.6587 -8.4468,3.9661 -11.831,1.7071 z" />
      <path
         style="opacity:0.46188001;fill:#808000;fill-rule:evenodd"
         inkscape:connector-curvature="0"
         id="path1206"
         d="m 75.66,484.56 a 4.9498,4.9498 0 1 1 -9.8995,0 4.9498,4.9498 0 1 1 9.8995,0 z"
         transform="matrix(0.79766,-0.20428,0.19565,0.83286,23.167,38.286)" />
      <path
         style="opacity:0.46188001;fill:#808000;fill-rule:evenodd"
         inkscape:connector-curvature="0"
         id="path1208"
         d="m 75.66,484.56 a 4.9498,4.9498 0 1 1 -9.8995,0 4.9498,4.9498 0 1 1 9.8995,0 z"
         transform="matrix(0.79608,0.02391,-0.0229,0.8312,149.88,10.519)" />
      <path
         style="opacity:0.46188001;fill:#808000;fill-rule:evenodd"
         inkscape:connector-curvature="0"
         id="path1210"
         d="m 75.66,484.56 a 4.9498,4.9498 0 1 1 -9.8995,0 4.9498,4.9498 0 1 1 9.8995,0 z"
         transform="matrix(0.70822,-0.22376,0.2143,0.73947,53.593,80.403)" />
      <path
         style="opacity:0.46188001;fill:#808000;fill-rule:evenodd"
         inkscape:connector-curvature="0"
         id="path1212"
         d="m 75.66,484.56 a 4.9498,4.9498 0 1 1 -9.8995,0 4.9498,4.9498 0 1 1 9.8995,0 z"
         transform="matrix(0.68464,0.34141,-0.32698,0.71484,304.54,57.955)" />
      <path
         style="opacity:0.46188001;fill:#808000;fill-rule:evenodd"
         inkscape:connector-curvature="0"
         id="path1214"
         d="m 75.66,484.56 a 4.9498,4.9498 0 1 1 -9.8995,0 4.9498,4.9498 0 1 1 9.8995,0 z"
         transform="matrix(0.66028,0.17867,-0.17112,0.68941,249.69,88.582)" />
      <path
         style="opacity:0.46188001;fill:#808000;fill-rule:evenodd"
         inkscape:connector-curvature="0"
         id="path1216"
         d="m 75.66,484.56 a 4.9498,4.9498 0 1 1 -9.8995,0 4.9498,4.9498 0 1 1 9.8995,0 z"
         transform="matrix(0.62881,0.35998,-0.34477,0.65656,338.3,79.132)" />
      <path
         style="opacity:0.46188001;fill:#808000;fill-rule:evenodd"
         inkscape:connector-curvature="0"
         id="path1218"
         d="m 75.66,484.56 a 4.9498,4.9498 0 1 1 -9.8995,0 4.9498,4.9498 0 1 1 9.8995,0 z"
         transform="matrix(0.77267,-0.34863,0.3339,0.80676,10.872,62.514)" />
      <path
         style="opacity:0.46188001;fill:#808000;fill-rule:evenodd"
         inkscape:connector-curvature="0"
         id="path1220"
         d="m 75.66,484.56 a 4.9498,4.9498 0 1 1 -9.8995,0 4.9498,4.9498 0 1 1 9.8995,0 z"
         transform="matrix(0.69065,-0.1469,0.14069,0.72112,112.9,64.778)" />
      <path
         style="opacity:0.46188001;fill:#808000;fill-rule:evenodd"
         inkscape:connector-curvature="0"
         id="path1222"
         d="m 75.66,484.56 a 4.9498,4.9498 0 1 1 -9.8995,0 4.9498,4.9498 0 1 1 9.8995,0 z"
         transform="matrix(0.81107,-0.00331,0.00317,0.84686,155.57,-1.7867)" />
      <path
         style="opacity:0.46188001;fill:#808000;fill-rule:evenodd"
         inkscape:connector-curvature="0"
         id="path1224"
         d="m 75.66,484.56 a 4.9498,4.9498 0 1 1 -9.8995,0 4.9498,4.9498 0 1 1 9.8995,0 z"
         transform="matrix(0.85323,0.05979,-0.05726,0.89088,171.65,-31.162)" />
      <path
         style="opacity:0.46188001;fill:#808000;fill-rule:evenodd"
         inkscape:connector-curvature="0"
         id="path1226"
         d="m 75.66,484.56 a 4.9498,4.9498 0 1 1 -9.8995,0 4.9498,4.9498 0 1 1 9.8995,0 z"
         transform="matrix(0.73639,-0.32523,0.31149,0.76888,-17.865,48.462)" />
      <path
         style="opacity:0.46188001;fill:#808000;fill-rule:evenodd"
         inkscape:connector-curvature="0"
         id="path1228"
         d="m 75.66,484.56 a 4.9498,4.9498 0 1 1 -9.8995,0 4.9498,4.9498 0 1 1 9.8995,0 z"
         transform="matrix(0.74705,-0.37564,0.35977,0.78001,-18.406,28.512)" />
      <path
         style="opacity:0.46188001;fill:#808000;fill-rule:evenodd"
         inkscape:connector-curvature="0"
         id="path1230"
         d="m 75.66,484.56 a 4.9498,4.9498 0 1 1 -9.8995,0 4.9498,4.9498 0 1 1 9.8995,0 z"
         transform="matrix(0.56109,0.42557,-0.40759,0.58584,330.52,21.451)" />
      <path
         style="opacity:0.46188001;fill:#808000;fill-rule:evenodd"
         inkscape:connector-curvature="0"
         id="path1232"
         d="m 75.66,484.56 a 4.9498,4.9498 0 1 1 -9.8995,0 4.9498,4.9498 0 1 1 9.8995,0 z"
         transform="matrix(0.79355,-0.19726,0.18892,0.82857,15.3,-38.042)" />
      <path
         style="opacity:0.46188001;fill:#808000;fill-rule:evenodd"
         inkscape:connector-curvature="0"
         id="path1234"
         d="m 75.66,484.56 a 4.9498,4.9498 0 1 1 -9.8995,0 4.9498,4.9498 0 1 1 9.8995,0 z"
         transform="matrix(0.79883,0.24318,-0.2329,0.83407,218.03,-84.415)" />
      <path
         style="opacity:0.46188001;fill:#808000;fill-rule:evenodd"
         inkscape:connector-curvature="0"
         id="path1236"
         d="m 75.66,484.56 a 4.9498,4.9498 0 1 1 -9.8995,0 4.9498,4.9498 0 1 1 9.8995,0 z"
         transform="matrix(0.76542,-0.38198,0.36584,0.79919,-84.073,12.588)" />
      <path
         style="opacity:0.46188001;fill:#808000;fill-rule:evenodd"
         inkscape:connector-curvature="0"
         id="path1238"
         d="m 75.66,484.56 a 4.9498,4.9498 0 1 1 -9.8995,0 4.9498,4.9498 0 1 1 9.8995,0 z"
         transform="matrix(0.84975,-0.07234,0.06928,0.88724,36.724,-50.191)" />
      <path
         style="opacity:0.46188001;fill:#808000;fill-rule:evenodd"
         inkscape:connector-curvature="0"
         id="path1240"
         d="m 75.66,484.56 a 4.9498,4.9498 0 1 1 -9.8995,0 4.9498,4.9498 0 1 1 9.8995,0 z"
         transform="matrix(0.82899,-0.14062,0.13468,0.86556,-12.801,-40.819)" />
      <path
         style="opacity:0.46188001;fill:#808000;fill-rule:evenodd"
         inkscape:connector-curvature="0"
         id="path1242"
         d="m 75.66,484.56 a 4.9498,4.9498 0 1 1 -9.8995,0 4.9498,4.9498 0 1 1 9.8995,0 z"
         transform="matrix(0.72609,-0.05329,0.05104,0.75813,53.645,-0.15854)" />
      <path
         style="opacity:0.46188001;fill:#808000;fill-rule:evenodd"
         inkscape:connector-curvature="0"
         id="path1244"
         d="m 75.66,484.56 a 4.9498,4.9498 0 1 1 -9.8995,0 4.9498,4.9498 0 1 1 9.8995,0 z"
         transform="matrix(0.75149,-0.06538,0.06262,0.78465,26.927,2.5521)" />
      <path
         style="opacity:0.46188001;fill:#808000;fill-rule:evenodd"
         inkscape:connector-curvature="0"
         id="path1246"
         d="m 75.66,484.56 a 4.9498,4.9498 0 1 1 -9.8995,0 4.9498,4.9498 0 1 1 9.8995,0 z"
         transform="matrix(0.84817,0.10708,-0.10256,0.8856,170.3,11.51)" />
      <path
         style="opacity:0.46188001;fill:#808000;fill-rule:evenodd"
         inkscape:connector-curvature="0"
         id="path1248"
         d="m 75.66,484.56 a 4.9498,4.9498 0 1 1 -9.8995,0 4.9498,4.9498 0 1 1 9.8995,0 z"
         transform="matrix(0.74205,-0.29931,0.28666,0.77479,33.042,93.057)" />
      <path
         style="opacity:0.46188001;fill:#808000;fill-rule:evenodd"
         inkscape:connector-curvature="0"
         id="path1250"
         d="m 75.66,484.56 a 4.9498,4.9498 0 1 1 -9.8995,0 4.9498,4.9498 0 1 1 9.8995,0 z"
         transform="matrix(0.71767,-0.04234,0.04055,0.74933,118.53,102.41)" />
      <path
         style="opacity:0.46188001;fill:#808000;fill-rule:evenodd"
         inkscape:connector-curvature="0"
         id="path1252"
         d="m 75.66,484.56 a 4.9498,4.9498 0 1 1 -9.8995,0 4.9498,4.9498 0 1 1 9.8995,0 z"
         transform="matrix(0.69248,-0.23431,0.22441,0.72303,47.044,136.1)" />
      <path
         style="opacity:0.46188001;fill:#808000;fill-rule:evenodd"
         inkscape:connector-curvature="0"
         id="path1254"
         d="m 75.66,484.56 a 4.9498,4.9498 0 1 1 -9.8995,0 4.9498,4.9498 0 1 1 9.8995,0 z"
         transform="matrix(0.78155,-0.22834,0.21869,0.81603,80.307,58.88)" />
      <path
         style="opacity:0.46188001;fill:#808000;fill-rule:evenodd"
         inkscape:connector-curvature="0"
         id="path1256"
         d="m 75.66,484.56 a 4.9498,4.9498 0 1 1 -9.8995,0 4.9498,4.9498 0 1 1 9.8995,0 z"
         transform="matrix(0.65686,0.14279,-0.13675,0.68584,218.17,101.91)" />
      <path
         style="opacity:0.46188001;fill:#808000;fill-rule:evenodd"
         inkscape:connector-curvature="0"
         id="path1258"
         d="m 75.66,484.56 a 4.9498,4.9498 0 1 1 -9.8995,0 4.9498,4.9498 0 1 1 9.8995,0 z"
         transform="matrix(0.76594,-0.29454,0.28209,0.79974,-63.57,123.35)" />
      <path
         style="opacity:0.46188001;fill:#808000;fill-rule:evenodd"
         inkscape:connector-curvature="0"
         id="path1260"
         d="m 75.66,484.56 a 4.9498,4.9498 0 1 1 -9.8995,0 4.9498,4.9498 0 1 1 9.8995,0 z"
         transform="matrix(0.76949,-0.29241,0.28006,0.80344,-84.207,151.96)" />
      <path
         style="opacity:0.46188001;fill:#808000;fill-rule:evenodd"
         inkscape:connector-curvature="0"
         id="path1262"
         d="m 75.66,484.56 a 4.9498,4.9498 0 1 1 -9.8995,0 4.9498,4.9498 0 1 1 9.8995,0 z"
         transform="matrix(0.73139,-0.3959,0.37917,0.76365,-124.65,185.73)" />
      <path
         style="opacity:0.88788997"
         inkscape:connector-curvature="0"
         id="path1264"
         d="m 99.603,438.55 c 5.1444,11.134 26.368,12.814 38.383,13.332 9.9848,0.41878 15.34,1.1096 19.738,2.4681 3.6179,1.1175 5.9143,3.0878 7.1388,5.7014 1.2245,2.6136 1.423,6.0544 0.23639,10.292 -0.99373,3.549 -4.4974,7.1298 -9.7154,9.2309 -5.1456,2.0719 -8.089,2.7504 -24.04,5.5286 -15.398,2.6819 -21.845,4.3742 -27.87,7.4785 -5.2506,2.7052 -8.9984,5.6659 -11.37,9.6505 -2.3716,3.9846 -3.2572,8.8093 -3.2621,14.932 -0.005,6.5522 0.74023,21.44 1.6311,32.481 0.55866,6.924 1.6372,12.057 3.8058,16.092 4.6221,7.3724 10.681,9.5986 18.027,9.5608 -20.108,-9.7042 -25.008,-54.578 -16.987,-70.968 1.8771,-3.1535 4.9237,-5.6646 9.8336,-8.1942 5.5644,-2.8669 11.495,-4.4909 26.806,-7.1576 15.978,-2.7828 13.808,-1.5172 21.965,-3.911 9.1641,-2.6895 16.06,-7.3557 18.27,-13.108 2.0976,-5.4601 1.9185,-10.483 -0.72068,-14.589 -2.63918,-4.106 -7.6834,-7.1037 -14.378,-8.6109 -18.653,-2.988 -25.683,0.32107 -41.683,-2.9732 -6.0411,-0.92544 -12.615,-5.1786 -15.808,-7.2357 z" />
    </g>
    <path
       inkscape:connector-curvature="0"
       id="path1268"
       d="m 30.019531,129.12109 c -0.237147,0.003 -0.474198,0.0118 -0.710937,0.0273 h -0.910156 v 0.0918 c -29.577492,-4.06132 -58.191445,21.75975 -12.822266,15.74219 v 0.0215 c -37.772782,-9.84391 -29.418272,15.29688 14.470703,15.83398 0.853581,-0.003 1.705218,-0.0896 2.544922,-0.25781 H 156.07617 c 2.51456,1.22168 5.16578,1.60595 7.64063,1.10742 7.15592,-1.46078 11.07648,-9.79241 8.75781,-18.61133 -2.13278,-8.0944 -8.8422,-13.90336 -15.61523,-13.51953 v -0.4082 H 30.525391 c -0.168462,-0.0123 -0.337108,-0.0214 -0.50586,-0.0273 z"
       style="opacity:1;fill:#ff5555;fill-opacity:1;stroke:none;stroke-width:12.39212227;stroke-miterlimit:4;stroke-dasharray:none;stroke-opacity:1;paint-order:markers fill stroke"
       sodipodi:nodetypes="cccccccccccccccc" />
  </g>
</svg>
